<svg width="600" height="660" viewBox="0 0 600 660" fill="none" xmlns="http://www.w3.org/2000/svg">
<g clip-path="url(#clip0_45_2186)">
<path d="M598.5 260.728C598.5 546.18 300 658.5 300 658.5C300 658.5 144.956 600.158 58.3486 460.712L73.0162 458.469C89.0155 455.952 121.016 450.916 139.535 432.397C158.052 413.879 163.088 381.879 181.606 363.361C200.124 344.843 232.124 339.808 250.643 321.289C269.161 302.771 274.196 270.771 292.714 252.253C311.232 233.735 343.233 228.699 361.751 210.181C380.269 191.663 385.304 159.663 403.822 141.145C422.341 122.626 454.341 117.591 472.859 99.073C491.377 80.5551 496.412 48.5549 514.93 30.037C533.449 11.5184 565.449 6.48292 581.448 3.96526L581.448 3.9652L598.5 2.1765V260.728Z" fill="white" stroke="black" stroke-width="3"/>
<path d="M1.5 2.17651H598.5L581.448 3.96522L581.448 3.96527C565.449 6.48294 533.449 11.5184 514.93 30.037C496.412 48.5549 491.377 80.5552 472.859 99.073C454.341 117.591 422.341 122.626 403.822 141.145C385.304 159.663 380.269 191.663 361.751 210.181C343.233 228.699 311.232 233.735 292.714 252.253C274.196 270.771 269.161 302.771 250.643 321.289C232.124 339.808 200.124 344.843 181.606 363.361C163.088 381.879 158.052 413.879 139.535 432.397C121.016 450.916 89.0155 455.952 73.0162 458.469L58.3486 460.712C24.7859 406.672 1.5 340.453 1.5 260.728V2.17651Z" fill="#3584E4" stroke="black" stroke-width="3"/>
<mask id="mask0_45_2186" style="mask-type:alpha" maskUnits="userSpaceOnUse" x="55" y="0" width="545" height="661">
<path d="M598.5 260.728C598.5 546.18 300 658.5 300 658.5C300 658.5 144.956 600.158 58.3486 460.712L73.0162 458.469C89.0155 455.952 121.016 450.916 139.535 432.397C158.052 413.879 163.088 381.879 181.606 363.361C200.124 344.843 232.124 339.808 250.643 321.289C269.161 302.771 274.196 270.771 292.714 252.253C311.232 233.735 343.233 228.699 361.751 210.181C380.269 191.663 385.304 159.663 403.822 141.145C422.341 122.626 454.341 117.591 472.859 99.073C491.377 80.5551 496.412 48.5549 514.93 30.037C533.449 11.5184 565.449 6.48292 581.448 3.96526L581.448 3.9652L598.5 2.1765V260.728Z" fill="#26A269" stroke="black" stroke-width="3"/>
</mask>
<g mask="url(#mask0_45_2186)">
<path d="M443.248 315.718C438.791 317.781 434.673 323.319 433.981 327.996C432.826 333.234 433.583 338.31 431.095 343.151C430.51 344.316 427.279 347.287 426.664 348.255C427.763 350.042 431.92 351.567 433.66 350.055C437.974 346.547 442.456 338.871 445.113 334.084C444.482 333.103 441.699 333.933 441.563 332.338C440.907 330.329 443.551 327.161 443.578 325.363C442.211 325.39 440.393 328.141 439.506 326.471C438.645 324.154 441.06 322.306 441.883 320.344C442.381 319.203 441.886 318.785 441.776 317.536C441.699 317.475 443.346 315.705 443.248 315.718Z" fill="#3584E4"/>
<path d="M355.526 396.684C355.223 398.904 358.1 404.286 358.574 406.493C363.011 418.741 364.737 432.163 362.328 445.027C359.59 454.477 356.033 462.139 352.021 471.103C344.512 486.818 333.258 501.413 325.438 516.964C320.791 525.484 316.324 534.736 311.137 542.932C312.847 544.346 316.511 543.937 317.529 546.361C317.436 548.591 314.295 547.717 312.889 547.527C310.84 547.185 308.44 544.78 307.624 547.626C306.746 549.295 303.02 552.306 303.021 554.254C306.782 556.816 312.592 557.47 316.998 557.688C320.678 557.471 323.615 552.456 324.836 549.587C326.675 545.042 326.13 541.009 328.38 536.687C330.262 534.403 333.377 535.284 335.755 534.517C336.019 529.599 336.683 525.139 338.515 520.462C342.752 509.087 349.443 497.528 356.318 487.612C366.12 473.942 378.148 460.522 388.198 447.05C390.12 443.206 387.188 439.851 387.713 435.868C387.734 430.929 388.725 425 389.118 420.14C379.253 413.098 367.932 406.467 358.643 398.637C358.237 398.452 356.011 396.596 355.526 396.684ZM382.529 437.373C384.504 438.151 384.413 441.041 384.386 442.871C384.239 447.148 382.025 451.481 377.988 453.189C377.441 453.232 374.364 455.708 375.148 454.236C377.724 449.09 381.083 443.789 380.29 437.762C381.034 437.63 381.772 437.404 382.529 437.373Z" fill="#3584E4"/>
<path d="M323.268 385.796C320.581 385.59 319.56 392.071 318.003 393.595C316.718 395.321 326.478 395.497 327.65 396.063C336.238 397.678 341.064 397.933 349.66 395.664C350.85 395.717 352.547 393.912 350.903 392.677C349.389 391.619 347.241 392.38 345.544 391.681C338.395 390.484 330.276 387.586 323.268 385.796Z" fill="#3584E4"/>
<path d="M285.863 212.866C285.129 214.462 286.06 216.595 286.101 218.343C287.25 225.105 286.766 232.398 283.993 238.687C282.395 239.891 281.385 237.166 280.766 236.114C278.008 230.637 275.381 224.522 270.155 221.018C269.006 222.282 269.407 224.576 269.038 226.227C268.15 234.793 268.694 243.823 265.46 251.929C264.087 254.442 262.948 257.629 260.509 259.216C258.489 259.194 258.593 256.323 257.796 255.028C255.683 248.659 253.49 242.063 249.225 236.792C247.891 237.491 247.775 239.644 246.985 240.868C243.167 249.805 240.524 259.739 233.735 266.96C232.726 267.859 231.396 266.94 231.477 265.615C228.695 257.393 227.926 248.266 223.279 240.76C222.07 240.277 221.22 242.26 220.345 242.855C213.836 249.912 208.26 257.836 201.497 264.612C199.801 265.495 198.743 262.964 198.569 261.65C196.79 252.298 198.729 242.655 201.038 233.552C201.229 232.93 202.347 230.872 200.765 231.547C192.294 237.505 185.248 245.473 177.16 251.941C175.404 251.975 175.374 249.833 175.872 248.596C178.115 236.307 183.07 224.685 188.478 213.541C187.361 212.794 185.897 214.488 184.774 214.807C181.511 216.27 178.891 218.801 177.619 222.178C174.241 228.859 171.552 235.967 170.976 243.5C169.799 251.891 170.77 260.499 171.909 268.767C179.983 270.629 188.497 272.485 196.687 270.281C197.994 269.746 199.684 271.77 197.943 272.463C190.947 275.849 182.966 273.562 175.666 272.489C161.761 269.829 148.377 264.348 134.151 263.444C129.424 263.44 124.652 265.386 121.935 269.363C114.983 277.463 107.851 285.583 102.982 295.162C99.4183 301.892 91.7531 307.036 87.7858 313.45C84.4419 320.125 85.6724 327.789 84.3033 335.032C84.3948 336.567 81.8132 339.831 82.7219 341.203C84.5095 341.482 87.6275 338.464 89.5114 338.699C90.829 338.353 92.948 339.544 91.765 340.967C89.5568 343.371 85.9921 344.557 84.1091 347.242C84.1384 350.547 83.8123 355.237 85.1681 358.307C90.0069 356.607 94.0681 351.103 97.3851 347.241C98.4095 345.627 100.82 344.181 99.2813 342.122C96.7017 337.082 100.634 330.774 105.111 327.641C107.307 326.631 105.658 325.208 104.24 323.525C101.429 315.957 104.534 307.702 108.51 301.152C113.406 292.341 120.927 284.54 130.739 281.313C133.67 280.443 136.781 279.288 139.779 280.649C156.465 284.263 169.283 296.282 184.047 304.023C192.413 308.447 200.803 312.997 209.62 316.425C215.333 317.864 222.202 316.898 225.913 311.938C227.373 310.634 227.797 308.741 228.707 307.148C229.264 306.177 230.563 305.806 230.982 307.079C231.504 309.653 229.508 312.081 228.017 314.021C225.04 317.695 220.468 319.759 215.723 319.818C214.52 320.281 209.994 318.122 209.027 318.984C209.865 321.305 214.311 324.727 215.979 326.468C228.857 335.598 243.447 343.414 257.028 351.465C276.672 362.571 295.33 374.542 316.439 382.692C326.067 386.41 339.697 388.503 349.844 390.289C349.453 388.357 345.059 385.347 344.102 383.365C341.922 379.426 339.251 375.474 338.117 371.065C338.356 369.65 340.295 369.774 340.754 371.002C343.594 376.421 346.225 382.13 350.088 386.988C358.525 398.437 370.733 406.228 382.578 413.659C389.689 418.242 396.427 423.392 401.686 430.038C407.56 436.916 411.309 442.583 413.722 451.459C417.013 461.519 419.243 472.271 418.471 482.864C417.307 502.507 414.72 522.047 411.794 541.49C410.579 548.091 410.145 556.678 406.514 562.383C405.416 564.207 403.104 565.564 402.655 567.64C404.817 568.983 407.522 567.765 409.801 567.972C411.338 568.695 409.501 570.103 408.185 570.433C405.037 572.33 402.59 569.757 399.377 569.287C396.718 570.678 392.89 573.291 390.95 575.568C390.951 576.843 393.748 579.442 394.541 579.893C398.335 580.276 404.215 580.56 407.994 579.567C413.811 577.963 414.428 570.332 416.301 565.309C417.633 561.353 420.302 557.835 424.396 556.102C427.129 554.653 425.232 548.528 425.489 546.117C425.91 533.39 429.074 521.435 430.504 508.798C432.791 490.553 434.753 475.186 439.27 457.345C440.389 454.07 441.333 449.011 438.519 446.328C428.374 434.815 421.169 419.383 417.699 404.541C415.155 392.581 416.723 380.978 419.171 369.034C421.425 361.568 424.32 354.518 426.993 347.249C428.326 336.411 422.807 325.124 414.888 318.254C401.933 306.967 385.248 299.018 370.494 290.398C357.384 283.093 343.399 276.007 331.742 266.516C322.833 259.5 313.59 252.693 305.06 245.327C297.305 236.87 292.355 226.395 287.962 215.884C287.322 215.006 287.073 213.1 285.863 212.866ZM425.6 443.125C429.246 443.822 434.421 444.411 435.345 448.77C436.095 452.596 434.541 456.546 432.492 459.73C429.259 459.726 430.084 457.108 430.372 454.83C430.434 452.176 431.431 448.879 428.99 446.95C427.852 445.584 426.411 444.438 425.301 443.081L425.6 443.125Z" fill="#3584E4"/>
<path d="M144.5 224.606C133.168 228.041 121.427 230.541 110.904 236.166C103.655 240.025 95.1449 240.465 87.9431 244.339C81.606 248.941 75.9067 254.534 70.8624 260.518C70.2675 261.072 69.5733 262.536 71.0926 262.39C73.2154 263.048 77.067 263.1 77.2408 265.992C75.5477 267.613 72.0305 265.983 69.8727 266.466C67.2993 266.539 64.0243 267.356 63.0736 270.108C62.2024 272.119 60.1915 275.653 60.5103 277.857C66.8105 278.691 75.3049 277.132 81.105 274.757C82.9048 272.867 81.3937 269.321 83.3339 267.435C86.1327 263.76 91.3799 263.824 95.7792 263.963C96.4363 261.122 96.3088 256.829 98.4047 254.523C102.532 248.644 109.109 244.649 116.276 243.747C125.636 242.105 135.099 240.341 144.634 240.877C148.35 241.155 149.31 244.97 151.649 247.359C156.61 253.292 160.058 260 164.033 266.584C164.692 267.305 168.591 269.055 169.445 268.463C168.879 260.171 167.96 249.074 169.047 240.774C168.664 236.941 164.412 236.095 162.088 233.286C158.097 229.382 153.561 225.2 147.628 225.049C146.585 224.901 145.543 224.754 144.5 224.606Z" fill="#3584E4"/>
<path d="M225.133 82.4334C222.778 84.0971 221.132 86.8373 220.403 89.5764C222.556 90.6315 225.317 90.4789 227.709 90.5048C232.546 89.626 239.503 86.2142 244.184 84.7335C242.587 83.6889 236.837 84.2981 234.717 83.7615C231.524 83.3389 228.321 82.7574 225.133 82.4334Z" fill="#3584E4"/>
<path d="M243.837 76.6989C228.931 75.441 214.621 81.4792 199.815 81.8617C192.866 82.2942 185.917 81.1245 179.008 81.0899C177.729 81.297 169.769 78.938 170.333 79.1601C172.159 80.2982 181.112 86.4991 178.975 86.9937C177.678 87.631 176.691 86.3436 175.575 86.1624C173.458 86.6023 171.371 87.8284 170.764 89.9709C169.045 92.3255 175.559 81.3656 176.074 79.0314C175.307 78.0459 164.148 84.8095 163.879 85.4023C163.237 87.3602 162.336 92.9426 162.891 94.986C167.715 94.754 172.771 92.3081 177.566 94.3013C179.076 94.7563 181.355 96.8142 179.426 98.1507C175.867 99.7794 169.041 98.3545 165.286 99.4705C164.389 99.4263 165.991 102.515 167.352 103.248C171.616 104.759 175.824 102.42 180.246 103.269C189.384 104.315 198.767 105.86 206.606 110.964C212.568 114.351 217.422 119.558 223.459 122.797C225.814 122.931 227.298 120.353 229.539 119.874C230.972 119.183 232.111 120.807 231.346 122.066C229.873 126.433 224.79 128.823 220.345 127.53C216.517 134.77 212.193 141.93 208.599 149.369C204.393 157.885 199.69 166.155 193.342 173.278C188.641 179.407 180.367 187.719 176.411 194.342C177.13 195.022 181.677 191.107 182.504 190.921C186.52 188.653 190.107 185.438 194.392 183.784C196.174 183.731 196.153 185.952 195.19 186.942C186.997 197.676 174.758 208.832 168.35 220.772C169.318 221.576 172.762 219.377 173.731 219.052C178.969 215.921 184.316 210.849 190.339 209.441C191.964 208.994 192.725 210.419 191.461 211.881C186.254 222.355 179.974 236.633 177.407 248.096C177.498 249.667 181.362 244.302 181.904 243.976C188.873 237.902 195.338 230.852 203.545 226.527C204.476 225.909 206.535 225.928 206.149 227.512C204.93 231.921 201.14 237.353 200.795 241.995C200.187 248.143 199.462 255.187 200.953 261.319C201.593 262.773 203.11 258.424 203.719 258.014C210.331 250.616 216.031 242.268 223.559 235.823C224.903 234.805 225.134 238.229 225.394 239.146C226.798 243.723 228.85 248.204 229.788 252.931C230.846 256.261 231.099 261.423 232.672 264.492C234.478 263.342 236.623 259.506 237.758 257.7C241.609 249.981 243.433 240.146 247.744 232.677C249.082 231.468 250.348 233.828 251.136 234.611C255.575 239.918 256.422 247.758 258.88 254.12C259.457 255.686 262.705 254.946 262.806 253.97C266.755 245.308 265.105 233.395 266.34 224.171C266.847 221.856 266.398 218.883 267.976 217.024C270.555 216.667 272.46 219.312 274.335 220.733C277.949 223.9 279.51 231.275 282.036 235.263C283.154 235.132 284.315 229.018 284.671 228.195C285.572 220.072 283.127 212.56 282.915 204.479C281.32 192.277 274.273 181.217 275.591 168.693C276.412 152.039 278.063 135.366 276.821 118.683C276.515 114.221 276.514 109.647 276.003 105.256C272.865 103.919 269.213 104.485 266.101 103.285C265.178 101.653 267.72 100.667 268.998 100.464C274.794 100.136 280.776 103.755 286.569 104.143C294.687 104.695 303.193 102.281 310.013 97.9972C310.726 97.2644 312.112 95.2696 311.784 94.065C304.612 86.3758 295.205 81.8302 284.843 82.1681C277.514 83.0872 269.619 88.4717 262.41 89.6238C260.343 89.6528 259.17 86.5247 261.298 85.6254C262.379 84.7205 264.407 84.9104 265.152 83.8898C261.037 81.0785 255.296 84.4337 251.353 81.121C249.026 79.3715 247.035 76.6934 243.837 76.6989ZM292.449 85.9205C296.131 86.6806 301.216 87.4484 302.675 91.4016C303.729 94.6688 300.629 97.3243 297.708 98.0773C291.349 99.9011 284.033 99.7142 277.959 96.928C276.494 96.5169 275.699 94.3629 277.439 93.7874C279.525 94.0085 281.326 95.6596 283.533 95.7924C288.481 96.5971 293.989 96.8466 298.531 94.4991C300.539 93.5109 299.651 90.7543 297.715 90.3212C291.269 87.469 283.81 87.871 277.404 90.5414C275.885 91.4962 274.172 89.0662 275.998 88.3373C281.002 85.7318 286.891 84.853 292.449 85.9205ZM238.003 81.4124C241.594 82.1864 245.621 82.0636 248.853 83.8831C250.405 85.6976 248.23 88.0124 246.21 87.7128C241.174 87.2262 236.759 90.5053 232.201 92.1146C227.966 94.5684 223.017 93.0932 218.528 92.155C217.734 91.8611 215.756 91.7912 216.775 90.4856C218.452 86.4411 221.183 82.7288 225.755 81.2744C230.173 81.2729 233.601 80.8995 238.003 81.4124Z" fill="#3584E4"/>
<path opacity="0.99" d="M173.055 270.551C176.541 271.358 179.912 272 183.039 272.328C184.121 272.327 189.035 273.954 197.357 271.539" stroke="black" stroke-width="3" stroke-linecap="round"/>
<path opacity="0.99" d="M236.431 82.5546C240.141 83.4346 244.464 83.0453 247.84 84.8137C248.74 87.2784 244.321 85.7158 242.987 86.3423C237.555 87.3042 232.947 91.1209 227.591 92.1799C224.489 91.957 220.957 91.7148 218.213 90.5891C219.948 87.0422 222.286 83.1125 226.619 82.1332C230.251 82.6588 232.799 82.029 236.431 82.5546Z" stroke="black" stroke-width="3" stroke-linecap="round"/>
<path opacity="0.99" d="M176.864 83.1865C181.412 83.125 178.901 87.7645 176.617 84.6796C174.464 84.0432 171.13 86.6381 169.283 87.5653C171.391 91.3856 165.105 88.6728 168.438 85.6178C171.558 83.8893 173.29 83.6038 176.864 83.1865Z" stroke="black" stroke-width="3" stroke-linecap="round"/>
<path d="M251.328 65.8254C251.328 65.8254 256.799 70.324 265.44 66.7773C276.03 62.4305 280.407 60.3177 289.371 50.006C294.127 44.536 300.429 38.4705 304.343 35.5964C311.32 30.4737 327.107 21.0814 327.837 21.6187C328.064 21.7858 322.25 27.7423 314.917 34.8555C301.401 47.9654 297.224 52.8403 298.059 54.5332C299.2 56.8453 313.17 53.8756 323.104 49.2092C326.737 47.5025 329.439 45.1372 334.474 39.2565C339.728 33.1184 343.043 30.2672 350.7 25.2999C360.542 18.9143 367.089 14.5613 362.599 18.5684C358.236 22.4622 347.443 35.145 346.413 37.7582C343.973 43.9492 345.985 45.5585 354.813 44.4745C361.71 43.6275 365.811 42.1492 372.856 35.5902C380.051 28.892 392.511 24.8249 393.162 24.3662C394.723 23.266 390.724 27.2416 385.791 31.9341C376.804 40.4828 374.196 44.7358 379.299 45.8878C383.69 46.8792 388.375 45.695 394.153 42.1327C398.452 39.4822 401.825 37.5676 407.172 36.5707C414.591 35.1875 423.576 36.8358 422.404 36.9019C421.938 36.9283 419.849 38.1914 416.617 38.9158C405.909 41.3168 395.945 47.1145 396.334 50.2048C396.177 51.4021 398.724 54.6117 402.597 55.7481C412.587 58.6799 420.868 65.5244 425.398 72.8586C419.235 69.8759 412.121 66.2576 403.006 62.8435C370.044 49.5443 333.522 52.4659 275.401 75.2568C275.798 75.1351 266.555 79.8138 266.283 79.6143M251.094 65.7314C239.939 58.8217 221.677 40.7069 217.564 45.2693C214.296 48.8946 253.689 80.2896 253.689 80.2896C257.55 81.4158 261.399 82.5762 266.605 79.4907" fill="#3584E4"/>
<path d="M251.328 65.8254C251.328 65.8254 256.799 70.324 265.44 66.7773C276.03 62.4305 280.407 60.3177 289.371 50.006C294.127 44.536 300.429 38.4705 304.343 35.5964C311.32 30.4737 327.107 21.0814 327.837 21.6187C328.064 21.7858 322.25 27.7423 314.917 34.8555C301.401 47.9654 297.224 52.8403 298.059 54.5332C299.2 56.8453 313.17 53.8756 323.104 49.2092C326.737 47.5025 329.439 45.1372 334.474 39.2565C339.728 33.1184 343.043 30.2672 350.7 25.2999C360.542 18.9143 367.089 14.5613 362.599 18.5684C358.236 22.4622 347.443 35.145 346.413 37.7582C343.973 43.9492 345.985 45.5585 354.813 44.4745C361.71 43.6275 365.811 42.1492 372.856 35.5902C380.051 28.892 392.511 24.8249 393.162 24.3662C394.723 23.266 390.724 27.2416 385.791 31.9341C376.804 40.4828 374.196 44.7358 379.299 45.8878C383.69 46.8792 388.375 45.695 394.153 42.1327C398.452 39.4822 401.825 37.5675 407.172 36.5707C414.591 35.1875 423.576 36.8358 422.404 36.9019C421.938 36.9283 419.849 38.1914 416.617 38.9158C405.909 41.3168 395.945 47.1145 396.334 50.2048C396.177 51.4021 398.724 54.6117 402.597 55.7481C412.587 58.6799 420.868 65.5244 425.398 72.8586C419.235 69.8759 412.121 66.2575 403.006 62.8435C370.044 49.5443 333.522 52.4659 275.401 75.2568C275.798 75.1351 266.555 79.8138 266.283 79.6143M251.094 65.7314C239.939 58.8217 221.677 40.7069 217.564 45.2693C214.296 48.8946 253.689 80.2896 253.689 80.2896C257.55 81.4158 261.399 82.5762 266.605 79.4907" stroke="black" stroke-width="3" stroke-linecap="round"/>
<path d="M250.676 62.0774C241.663 52.5539 228.652 30.3874 223.505 33.7478C219.414 36.4181 249.45 76.8101 249.45 76.8101C253.337 79.1748 257.314 81.8609 264.089 79.5107M250.56 62.0259C250.56 62.0259 254.82 68.4262 264.086 67.2024C275.441 65.7026 280.215 64.777 291.529 57.0975C297.531 53.0237 305.181 48.769 309.703 46.9897C317.764 43.8182 335.438 38.7675 336.006 39.4731C336.183 39.6925 329.033 43.9664 320.117 48.9706C303.684 58.1937 298.395 61.84 298.768 63.6891C299.278 66.2147 313.548 66.908 324.351 64.932C328.302 64.2093 331.127 61.4259 337.504 57.0263C344.159 52.4342 353.219 49.919 358.041 48.7067C366.891 46.4817 375.449 44.3247 368.372 47.0403C367.831 47.2478 351.493 57.5473 349.827 59.8102C345.879 65.1716 347.413 67.2404 356.226 68.4444C363.113 69.3851 366.797 67.7989 375.28 63.2334C385.018 57.9924 398.044 57.4423 400.933 56.3182C404.874 54.7848 392.162 62.6283 389.398 64.2261C378.689 70.416 374.901 73.6412 379.54 76.0564C383.532 78.1348 388.366 78.1852 394.867 76.2161C399.704 74.751 402.869 74.4226 408.295 74.8231C415.824 75.3787 422.394 78.0564 423.526 78.3671C430.885 80.3868 420.717 78.5951 417.414 78.8373C406.838 79.6129 392.523 82.9649 394.793 85.1067C393.701 88.0578 402.886 90.2728 410.72 95.8916C415.637 99.4179 422.266 104.789 424.62 110.047C421.027 107.893 398.35 98.0152 388.685 93.823C345.864 75.2498 315.893 74.6129 271.542 77.9389C264.598 78.7449 264.332 79.7161 264.121 79.4541" fill="#3584E4"/>
<path d="M250.676 62.0774C241.663 52.5539 228.652 30.3874 223.505 33.7478C219.414 36.4181 249.45 76.8101 249.45 76.8101C253.337 79.1748 257.314 81.8609 264.089 79.5107M250.56 62.0259C250.56 62.0259 254.82 68.4262 264.086 67.2024C275.441 65.7026 280.215 64.777 291.529 57.0974C297.531 53.0237 305.181 48.769 309.703 46.9897C317.764 43.8182 335.438 38.7675 336.006 39.4731C336.183 39.6925 329.033 43.9664 320.117 48.9706C303.684 58.1937 298.395 61.84 298.768 63.6891C299.278 66.2147 313.548 66.908 324.351 64.932C328.302 64.2093 331.127 61.4259 337.504 57.0263C344.159 52.4342 353.219 49.919 358.041 48.7067C366.891 46.4817 375.449 44.3247 368.372 47.0403C367.831 47.2478 351.493 57.5473 349.827 59.8102C345.879 65.1716 347.413 67.2403 356.226 68.4444C363.113 69.3851 366.797 67.7989 375.28 63.2334C385.018 57.9924 398.044 57.4423 400.933 56.3182C404.874 54.7848 392.162 62.6283 389.398 64.2261C378.689 70.416 374.901 73.6412 379.54 76.0564C383.532 78.1348 388.366 78.1852 394.867 76.2161C399.704 74.751 402.869 74.4226 408.295 74.8231C415.824 75.3787 422.394 78.0564 423.526 78.3671C430.885 80.3868 420.717 78.5951 417.414 78.8373C406.838 79.6129 392.523 82.9649 394.793 85.1067C393.701 88.0578 402.886 90.2728 410.72 95.8916C415.637 99.4179 422.266 104.789 424.62 110.047C421.027 107.893 398.35 98.0152 388.685 93.823C345.864 75.2498 315.893 74.6129 271.542 77.9389C264.598 78.7449 264.332 79.7161 264.121 79.4541" stroke="black" stroke-width="3" stroke-linecap="round"/>
<path opacity="0.99" d="M276.561 89.4058C280.634 87.5696 286.608 86.1906 290.981 86.9681C294.659 87.8309 299.94 88.1192 301.53 92.0356C302.08 96.1167 296.88 97.0379 293.892 97.5607C288.52 98.0937 282.259 98.3425 277.732 95.0508M323.59 385.204C319.875 385.872 322.336 387.758 315.963 393.26C331.166 398.477 341.016 398.399 354.082 395.037M205.373 316.31C196.198 312.185 178.021 303.199 170.067 297.213C156.517 288.033 146.345 282.704 136.21 281.455C122.306 283.525 114.252 293.515 108.531 303.765C105.783 309.411 102.611 316.256 105.76 323.472C108.783 326.773 108.08 325.983 103.787 328.93C98.3908 333.743 99.1176 338.493 100.518 341.271C100.872 342.182 101.715 343.023 101.063 344.839C96.1285 351.417 92.4882 355.669 86.257 358.667C83.9768 359.074 84.1676 357.042 83.4188 355.802L82.2372 347.016C84.0994 344.216 88.9208 341.675 90.8469 340.19C89.6981 339.298 84.3564 341.261 82.1846 343.623C82.1245 334.845 84.3972 324.084 86.9729 315.095C90.2077 308.109 95.5613 304.3 99.7877 297.767C102.793 293.445 104.586 288.167 108.673 283.134L122.53 266.108C128.461 261.247 133.026 261.278 143.208 263.061C152.083 264.563 163.045 268.235 173.055 270.551M229.833 307.677C228.83 312.214 224.279 317.128 218.924 318.079C209.437 319.704 204.682 315.889 204.935 316.222C210.86 321.579 215.298 327.027 224.662 332.308C246.427 345.997 266.897 357.465 288.521 369.474C304.87 378.198 321.955 386.022 340.335 389.311C342.709 389.468 348.548 391.355 350.789 390.511M179.149 216.316C168.092 234.782 167.42 248.085 170.497 269.513M427.519 345.856C436.108 344.647 425.405 318.475 445.491 314.47C444.346 319.322 429.856 333.956 446.408 322.441C445.31 326.751 436.099 336.377 446.684 332.548C442.246 338.802 434.366 358.746 426.794 347.983C424.846 352.368 420.057 365.971 418.838 370.095C417.952 376.222 417.166 382.985 417.394 389.371C417.634 398.357 418.939 406.045 421.879 414.363C426.182 426.534 429.822 433.096 435.858 441.286C439.234 445.239 442.345 447.271 440.852 452.925C438.85 458.796 437.773 463.486 436.6 470.919C434.256 481.16 433.165 491.417 431.568 501.776L428.218 528.233C427.274 535.408 425.859 542.727 426.501 550.23C427.284 556.116 424.765 556.008 421.907 557.809C417.05 562.111 417.524 572.146 411.11 577.861C399.658 585.068 387.808 577.48 390.349 575.409L398.896 568.444C406.571 572.417 408.785 569.65 409.339 569.188C404.308 570.996 400.513 568.625 400.142 567.434C401.62 565.761 406.035 561.537 406.781 559.3C409.24 553.594 410.609 546.882 411.588 540.765L416.973 500.825C417.682 490.628 418.723 480.681 417.972 470.56C416.575 460.925 414.236 451.878 410.286 443.897C405.558 435.993 399.171 428.964 393.611 423.442C375.456 407.969 353.141 403.517 339.434 371.246M389.439 300.704C406.55 310.081 429.471 324.133 427.476 346.149M389.161 300.321C389.161 300.321 362.502 285.733 349.398 277.77C334.557 267.525 321.903 256.769 308.145 246.402C299.059 238.429 291.691 221.626 291.212 219.472C289.552 215.92 284.677 205.352 282.904 202.505M169.801 240.688C164.942 234.911 167.987 236.927 163.425 232.47C156.081 225.212 151.348 222.793 143.692 223.406L122.572 229.504C116.333 231.308 111.834 234.62 106.89 236.457C99.6785 239.412 93.1385 239.439 86.4815 243.33C79.2194 249.241 71.2049 256.804 66.2294 264.041C69.366 263.339 75.4064 264.242 75.8395 265.627C73.4067 265.75 67.4864 266.025 64.3538 267.262L60.2567 274.71C60.1619 276.154 58.8516 277.751 60.9581 278.715C67.7936 279.802 73.2094 278.37 81.0288 275.781C82.6041 274.661 82.4061 273.48 82.6368 272.53C83.0766 269.453 85.187 265.196 92.3749 264.318C97.5888 264.344 97.6845 265.346 97.0909 260.917C98.6348 253.203 105.19 249.393 110.68 246.324C121.172 243.791 145.545 240.14 146.979 243.237C150.121 245.712 157.513 254.489 164.574 268.181M390.006 420.589C390.893 419.828 388.925 421.106 387.951 436.95C387.984 440.705 391.562 444.842 387.345 450.008L370.484 471.228L356.039 490.046L344.103 508.499C341.438 515.623 337.301 519.58 337.47 530.385C337.877 536.216 335.823 535.301 333.332 535.231C328.399 534.142 328.524 538.173 327.895 540.601C326.203 546.994 325.633 551.354 321.759 556.187C319.179 560.72 300.233 556.437 302.751 552.594C305.97 548.635 305.621 549.109 308.018 545.102C323.692 548.568 312.853 544.919 308.754 543.999L322.339 522.642L330.944 506.008L345.469 482.225C350.4 472.737 354.991 462.245 358.598 451.981C361.655 444.147 362.113 441.151 362.029 433.055C361.628 424.528 361.118 416.655 357.614 408.255C356.089 404.935 355.415 399.587 354.385 394.714M291.167 82.1123C281.99 80.3169 275.982 83.5517 268.52 86.4794C266.802 86.7593 263.346 88.9538 261.737 88.041C260.123 85.8921 266.647 85.9729 267.718 85.0504C271.604 83.8463 264.888 82.4511 263.38 81.4458C260.064 80.5346 256.329 82.4217 253.148 80.5737C250.046 79.0613 247.846 74.7472 244.013 75.1539C230.593 73.8796 217.337 79.0974 204.056 80.1788C194.209 81.6335 185.184 79.3531 175.315 79.2962C166.453 78.0391 159.783 89.9647 161.546 97.1318C166.654 96.4027 174.05 92.6753 178.909 96.7423C178.58 98.4239 167.023 97.1047 163.44 100.37C165.295 104.647 171.647 104.159 178.39 104.323C187.323 105.026 196.294 106.776 204.18 111.152C211.364 114.481 216.553 121.321 223.696 124.61C225.786 124.458 228.578 121.048 230.347 121.142C229.432 123.954 226.071 127.198 222.251 126.273C219.393 125.487 218.598 126.611 217.619 129.943C208.533 143.492 203.995 159.886 192.593 171.854C187.968 177.55 178.418 190.475 174.786 196.829C182.905 193.578 195.719 182.993 194.563 185.479C193.354 188.081 171.573 210.566 166.581 224.658C169.039 223.649 189.341 208.597 191.532 210.906C185.418 222.043 178.585 238.627 176.915 250.568C183.093 245.399 197.095 230.379 204.985 227.438C200.971 234.571 197.027 255.683 200.658 263.613C207.794 256.425 214.854 245.556 224.125 236.931C227.714 249.838 225.381 235.393 232.928 266.066C241.01 256.736 242.958 244.505 248.685 233.62C255.263 241.318 258.195 250.449 260.153 257.962C269.835 246.46 265.34 232.592 268.714 218.157C276.982 222.997 279.801 230.633 283.016 237.73C287.971 223.721 283.426 219.052 283.211 203.203C281.348 193.116 276.118 181.08 276.794 170.642C277.727 153.996 279.699 137.334 278.356 120.641C278.025 115.585 277.961 109.496 277.463 104.481C272.447 101.65 270.57 102.949 267.214 102.639C268.936 100.562 274.744 102.455 277.562 102.699C287.239 105.621 294.32 104.791 303.646 101.312C307.586 99.8472 311.309 97.6221 314.237 94.623C311.25 91.1157 306.967 87.6957 302.811 85.5598C299.74 84.184 294.509 82.4502 291.167 82.1123Z" stroke="black" stroke-width="3" stroke-linecap="round" stroke-linejoin="round"/>
<path d="M429.619 445.436C432.556 447.923 432.735 450.589 431.321 459.031C433.826 455.227 437.024 446.533 429.619 445.436Z" stroke="black" stroke-width="3"/>
<path d="M381.685 437.775C381.994 443.684 382.219 443.833 378.14 451.445C382.572 450.023 384.732 441.291 381.685 437.775Z" stroke="black" stroke-width="3"/>
<path d="M232.919 86.6599C232.867 87.0228 232.709 87.3668 232.453 87.6721C232.197 87.9774 231.848 88.2381 231.428 88.4392C231.007 88.6404 230.522 88.7781 230.001 88.8445C229.48 88.9109 228.933 88.9047 228.39 88.8262C227.848 88.7477 227.321 88.5985 226.84 88.3871C226.359 88.1757 225.933 87.9062 225.587 87.5941C225.24 87.2819 224.98 86.9332 224.821 86.5679C224.662 86.2026 224.608 85.8278 224.661 85.4649C224.713 85.102 224.871 84.7581 225.127 84.4528C225.383 84.1475 225.731 83.8868 226.152 83.6856C226.573 83.4845 227.057 83.3467 227.579 83.2803C228.1 83.2139 228.647 83.2202 229.19 83.2987C229.732 83.3771 230.259 83.5264 230.74 83.7378C231.221 83.9492 231.647 84.2187 231.993 84.5308C232.34 84.843 232.6 85.1916 232.759 85.557C232.918 85.9223 232.972 86.2971 232.919 86.6599Z" fill="#3584E4" stroke="black" stroke-width="3"/>
</g>
<mask id="mask1_45_2186" style="mask-type:alpha" maskUnits="userSpaceOnUse" x="0" y="0" width="599" height="463">
<path d="M1.5 2.17651H598.5L581.448 3.96522L581.448 3.96527C565.449 6.48294 533.449 11.5184 514.93 30.037C496.412 48.5549 491.377 80.5552 472.859 99.073C454.341 117.591 422.341 122.626 403.822 141.145C385.304 159.663 380.269 191.663 361.751 210.181C343.233 228.699 311.232 233.735 292.714 252.253C274.196 270.771 269.161 302.771 250.643 321.289C232.124 339.808 200.124 344.843 181.606 363.361C163.088 381.879 158.052 413.879 139.535 432.397C121.016 450.916 89.0155 455.952 73.0162 458.469L58.3486 460.712C24.7859 406.672 1.5 340.453 1.5 260.728V2.17651Z" fill="#F6D32D" stroke="black" stroke-width="3"/>
</mask>
<g mask="url(#mask1_45_2186)">
<path d="M443.248 315.718C438.791 317.781 434.673 323.319 433.981 327.996C432.826 333.234 433.583 338.31 431.095 343.151C430.51 344.316 427.279 347.287 426.664 348.255C427.763 350.042 431.92 351.567 433.66 350.055C437.974 346.547 442.456 338.871 445.113 334.084C444.482 333.103 441.699 333.933 441.563 332.338C440.907 330.329 443.551 327.161 443.578 325.363C442.211 325.39 440.393 328.141 439.506 326.471C438.645 324.154 441.06 322.306 441.883 320.344C442.381 319.203 441.886 318.785 441.776 317.536C441.699 317.475 443.346 315.705 443.248 315.718Z" fill="#3584E4"/>
<path d="M355.526 396.684C355.223 398.904 358.1 404.286 358.574 406.493C363.011 418.741 364.737 432.163 362.328 445.027C359.59 454.477 356.033 462.139 352.021 471.103C344.512 486.818 333.258 501.413 325.438 516.964C320.791 525.484 316.324 534.736 311.137 542.932C312.847 544.346 316.511 543.937 317.529 546.361C317.436 548.591 314.295 547.717 312.889 547.527C310.84 547.185 308.44 544.78 307.624 547.626C306.746 549.295 303.02 552.306 303.021 554.254C306.782 556.816 312.592 557.47 316.998 557.688C320.678 557.471 323.615 552.456 324.836 549.587C326.675 545.042 326.13 541.009 328.38 536.687C330.262 534.403 333.377 535.284 335.755 534.517C336.019 529.599 336.683 525.139 338.515 520.462C342.752 509.087 349.443 497.528 356.318 487.612C366.12 473.942 378.148 460.522 388.198 447.05C390.12 443.206 387.188 439.851 387.713 435.868C387.734 430.929 388.725 425 389.118 420.14C379.253 413.098 367.932 406.467 358.643 398.637C358.237 398.452 356.011 396.596 355.526 396.684ZM382.529 437.373C384.504 438.151 384.413 441.041 384.386 442.871C384.239 447.148 382.025 451.481 377.988 453.189C377.441 453.232 374.364 455.708 375.148 454.236C377.724 449.09 381.083 443.789 380.29 437.762C381.034 437.63 381.772 437.404 382.529 437.373Z" fill="#3584E4"/>
<path d="M323.268 385.796C320.581 385.59 319.56 392.071 318.003 393.595C316.718 395.321 326.478 395.497 327.65 396.063C336.238 397.678 341.064 397.933 349.66 395.664C350.85 395.717 352.547 393.912 350.903 392.677C349.389 391.619 347.241 392.38 345.544 391.681C338.395 390.484 330.276 387.586 323.268 385.796Z" fill="#3584E4"/>
<path d="M285.863 212.866C285.129 214.462 286.06 216.595 286.101 218.343C287.25 225.105 286.766 232.398 283.993 238.687C282.395 239.891 281.385 237.166 280.766 236.114C278.008 230.637 275.381 224.522 270.155 221.018C269.006 222.282 269.407 224.576 269.038 226.227C268.15 234.793 268.694 243.823 265.46 251.929C264.087 254.442 262.948 257.629 260.509 259.216C258.489 259.194 258.593 256.323 257.796 255.028C255.683 248.659 253.49 242.063 249.225 236.792C247.891 237.491 247.775 239.644 246.985 240.868C243.167 249.805 240.524 259.739 233.735 266.96C232.726 267.859 231.396 266.94 231.477 265.615C228.695 257.393 227.926 248.266 223.279 240.76C222.07 240.277 221.22 242.26 220.345 242.855C213.836 249.912 208.26 257.836 201.497 264.612C199.801 265.495 198.743 262.964 198.569 261.65C196.79 252.298 198.729 242.655 201.038 233.552C201.229 232.93 202.347 230.872 200.765 231.547C192.294 237.505 185.248 245.473 177.16 251.941C175.404 251.975 175.374 249.833 175.872 248.596C178.115 236.307 183.07 224.685 188.478 213.541C187.361 212.794 185.897 214.488 184.774 214.807C181.511 216.27 178.891 218.801 177.619 222.178C174.241 228.859 171.552 235.967 170.976 243.5C169.799 251.891 170.77 260.499 171.909 268.767C179.983 270.629 188.497 272.485 196.687 270.281C197.994 269.746 199.684 271.77 197.943 272.463C190.947 275.849 182.966 273.562 175.666 272.489C161.761 269.829 148.377 264.348 134.151 263.444C129.424 263.44 124.652 265.386 121.935 269.363C114.983 277.463 107.851 285.583 102.982 295.162C99.4183 301.892 91.7531 307.036 87.7858 313.45C84.4419 320.125 85.6724 327.789 84.3033 335.032C84.3948 336.567 81.8132 339.831 82.7219 341.203C84.5095 341.482 87.6275 338.464 89.5114 338.699C90.829 338.353 92.948 339.544 91.765 340.967C89.5568 343.371 85.9921 344.557 84.1091 347.242C84.1384 350.547 83.8123 355.237 85.1681 358.307C90.0069 356.607 94.0681 351.103 97.3851 347.241C98.4095 345.627 100.82 344.181 99.2813 342.122C96.7017 337.082 100.634 330.774 105.111 327.641C107.307 326.631 105.658 325.208 104.24 323.525C101.429 315.957 104.534 307.702 108.51 301.152C113.406 292.341 120.927 284.54 130.739 281.313C133.67 280.443 136.781 279.288 139.779 280.649C156.465 284.263 169.283 296.282 184.047 304.023C192.413 308.447 200.803 312.997 209.62 316.425C215.333 317.864 222.202 316.898 225.913 311.938C227.373 310.634 227.797 308.741 228.707 307.148C229.264 306.177 230.563 305.806 230.982 307.079C231.504 309.653 229.508 312.081 228.017 314.021C225.04 317.695 220.468 319.759 215.723 319.818C214.52 320.281 209.994 318.122 209.027 318.984C209.865 321.305 214.311 324.727 215.979 326.468C228.857 335.598 243.447 343.414 257.028 351.465C276.672 362.571 295.33 374.542 316.439 382.692C326.067 386.41 339.697 388.503 349.844 390.289C349.453 388.357 345.059 385.347 344.102 383.365C341.922 379.426 339.251 375.474 338.117 371.065C338.356 369.65 340.295 369.774 340.754 371.002C343.594 376.421 346.225 382.13 350.088 386.988C358.525 398.437 370.733 406.228 382.578 413.659C389.689 418.242 396.427 423.392 401.686 430.038C407.56 436.916 411.309 442.583 413.722 451.459C417.013 461.519 419.243 472.271 418.471 482.864C417.307 502.507 414.72 522.047 411.794 541.49C410.579 548.091 410.145 556.678 406.514 562.383C405.416 564.207 403.104 565.564 402.655 567.64C404.817 568.983 407.522 567.765 409.801 567.972C411.338 568.695 409.501 570.103 408.185 570.433C405.037 572.33 402.59 569.757 399.377 569.287C396.718 570.678 392.89 573.291 390.95 575.568C390.951 576.843 393.748 579.442 394.541 579.893C398.335 580.276 404.215 580.56 407.994 579.567C413.811 577.963 414.428 570.332 416.301 565.309C417.633 561.353 420.302 557.835 424.396 556.102C427.129 554.653 425.232 548.528 425.489 546.117C425.91 533.39 429.074 521.435 430.504 508.798C432.791 490.553 434.753 475.186 439.27 457.345C440.389 454.07 441.333 449.011 438.519 446.328C428.374 434.815 421.169 419.383 417.699 404.541C415.155 392.581 416.723 380.978 419.171 369.034C421.425 361.568 424.32 354.518 426.993 347.249C428.326 336.411 422.807 325.124 414.888 318.254C401.933 306.967 385.248 299.018 370.494 290.398C357.384 283.093 343.399 276.007 331.742 266.516C322.833 259.5 313.59 252.693 305.06 245.327C297.305 236.87 292.355 226.395 287.962 215.884C287.322 215.006 287.073 213.1 285.863 212.866ZM425.6 443.125C429.246 443.822 434.421 444.411 435.345 448.77C436.095 452.596 434.541 456.546 432.492 459.73C429.259 459.726 430.084 457.108 430.372 454.83C430.434 452.176 431.431 448.879 428.99 446.95C427.852 445.584 426.411 444.438 425.301 443.081L425.6 443.125Z" fill="white"/>
<path d="M144.5 224.606C133.168 228.041 121.427 230.541 110.904 236.166C103.655 240.025 95.1449 240.465 87.9431 244.339C81.606 248.941 75.9067 254.534 70.8624 260.518C70.2675 261.072 69.5733 262.536 71.0926 262.39C73.2154 263.048 77.067 263.1 77.2408 265.992C75.5477 267.613 72.0305 265.983 69.8727 266.466C67.2993 266.539 64.0243 267.356 63.0736 270.108C62.2024 272.119 60.1915 275.653 60.5103 277.857C66.8105 278.691 75.3049 277.132 81.105 274.757C82.9048 272.867 81.3937 269.321 83.3339 267.435C86.1327 263.76 91.3799 263.824 95.7792 263.963C96.4363 261.122 96.3088 256.829 98.4047 254.523C102.532 248.644 109.109 244.649 116.276 243.747C125.636 242.105 135.099 240.341 144.634 240.877C148.35 241.155 149.31 244.97 151.649 247.359C156.61 253.292 160.058 260 164.033 266.584C164.692 267.305 168.591 269.055 169.445 268.463C168.879 260.171 167.96 249.074 169.047 240.774C168.664 236.941 164.412 236.095 162.088 233.286C158.097 229.382 153.561 225.2 147.628 225.049C146.585 224.901 145.543 224.754 144.5 224.606Z" fill="white"/>
<path d="M225.133 82.4334C222.778 84.0971 221.132 86.8373 220.403 89.5764C222.556 90.6315 225.317 90.4789 227.709 90.5048C232.546 89.626 239.503 86.2142 244.184 84.7335C242.587 83.6889 236.837 84.2981 234.717 83.7615C231.524 83.3389 228.321 82.7574 225.133 82.4334Z" fill="white"/>
<path d="M243.837 76.6989C228.931 75.441 214.621 81.4792 199.815 81.8617C192.866 82.2942 185.917 81.1245 179.008 81.0899C177.729 81.297 169.769 78.938 170.333 79.1601C172.159 80.2982 181.112 86.4991 178.975 86.9937C177.678 87.631 176.691 86.3436 175.575 86.1624C173.458 86.6023 171.371 87.8284 170.764 89.9709C169.045 92.3255 175.559 81.3656 176.074 79.0314C175.307 78.0459 164.148 84.8095 163.879 85.4023C163.237 87.3602 162.336 92.9426 162.891 94.986C167.715 94.754 172.771 92.3081 177.566 94.3013C179.076 94.7563 181.355 96.8142 179.426 98.1507C175.867 99.7794 169.041 98.3545 165.286 99.4705C164.389 99.4263 165.991 102.515 167.352 103.248C171.616 104.759 175.824 102.42 180.246 103.269C189.384 104.315 198.767 105.86 206.606 110.964C212.568 114.351 217.422 119.558 223.459 122.797C225.814 122.931 227.298 120.353 229.539 119.874C230.972 119.183 232.111 120.807 231.346 122.066C229.873 126.433 224.79 128.823 220.345 127.53C216.517 134.77 212.193 141.93 208.599 149.369C204.393 157.885 199.69 166.155 193.342 173.278C188.641 179.407 180.367 187.719 176.411 194.342C177.13 195.022 181.677 191.107 182.504 190.921C186.52 188.653 190.107 185.438 194.392 183.784C196.174 183.731 196.153 185.952 195.19 186.942C186.997 197.676 174.758 208.832 168.35 220.772C169.318 221.576 172.762 219.377 173.731 219.052C178.969 215.921 184.316 210.849 190.339 209.441C191.964 208.994 192.725 210.419 191.461 211.881C186.254 222.355 179.974 236.633 177.407 248.096C177.498 249.667 181.362 244.302 181.904 243.976C188.873 237.902 195.338 230.852 203.545 226.527C204.476 225.909 206.535 225.928 206.149 227.512C204.93 231.921 201.14 237.353 200.795 241.995C200.187 248.143 199.462 255.187 200.953 261.319C201.593 262.773 203.11 258.424 203.719 258.014C210.331 250.616 216.031 242.268 223.559 235.823C224.903 234.805 225.134 238.229 225.394 239.146C226.798 243.723 228.85 248.204 229.788 252.931C230.846 256.261 231.099 261.423 232.672 264.492C234.478 263.342 236.623 259.506 237.758 257.7C241.609 249.981 243.433 240.146 247.744 232.677C249.082 231.468 250.348 233.828 251.136 234.611C255.575 239.918 256.422 247.758 258.88 254.12C259.457 255.686 262.705 254.946 262.806 253.97C266.755 245.308 265.105 233.395 266.34 224.171C266.847 221.856 266.398 218.883 267.976 217.024C270.555 216.667 272.46 219.312 274.335 220.733C277.949 223.9 279.51 231.275 282.036 235.263C283.154 235.132 284.315 229.018 284.671 228.195C285.572 220.072 283.127 212.56 282.915 204.479C281.32 192.277 274.273 181.217 275.591 168.693C276.412 152.039 278.063 135.366 276.821 118.683C276.515 114.221 276.514 109.647 276.003 105.256C272.865 103.919 269.213 104.485 266.101 103.285C265.178 101.653 267.72 100.667 268.998 100.464C274.794 100.136 280.776 103.755 286.569 104.143C294.687 104.695 303.193 102.281 310.013 97.9972C310.726 97.2644 312.112 95.2696 311.784 94.065C304.612 86.3758 295.205 81.8302 284.843 82.1681C277.514 83.0872 269.619 88.4717 262.41 89.6238C260.343 89.6528 259.17 86.5247 261.298 85.6254C262.379 84.7205 264.407 84.9104 265.152 83.8898C261.037 81.0785 255.296 84.4337 251.353 81.121C249.026 79.3715 247.035 76.6934 243.837 76.6989ZM292.449 85.9205C296.131 86.6806 301.216 87.4484 302.675 91.4016C303.729 94.6688 300.629 97.3243 297.708 98.0773C291.349 99.9011 284.033 99.7142 277.959 96.928C276.494 96.5169 275.699 94.3629 277.439 93.7874C279.525 94.0085 281.326 95.6596 283.533 95.7924C288.481 96.5971 293.989 96.8466 298.531 94.4991C300.539 93.5109 299.651 90.7543 297.715 90.3212C291.269 87.469 283.81 87.871 277.404 90.5414C275.885 91.4962 274.172 89.0662 275.998 88.3373C281.002 85.7318 286.891 84.853 292.449 85.9205ZM238.003 81.4124C241.594 82.1864 245.621 82.0636 248.853 83.8831C250.405 85.6976 248.23 88.0124 246.21 87.7128C241.174 87.2262 236.759 90.5053 232.201 92.1146C227.966 94.5684 223.017 93.0932 218.528 92.155C217.734 91.8611 215.756 91.7912 216.775 90.4856C218.452 86.4411 221.183 82.7288 225.755 81.2744C230.173 81.2729 233.601 80.8995 238.003 81.4124Z" fill="white"/>
<path opacity="0.99" d="M173.055 270.551C176.541 271.358 179.912 272 183.039 272.328C184.121 272.327 189.035 273.954 197.357 271.539" stroke="black" stroke-width="3" stroke-linecap="round"/>
<path opacity="0.99" d="M236.431 82.5546C240.141 83.4346 244.464 83.0453 247.84 84.8137C248.74 87.2784 244.321 85.7158 242.987 86.3423C237.555 87.3042 232.947 91.1209 227.591 92.1799C224.489 91.957 220.957 91.7148 218.213 90.5891C219.948 87.0422 222.286 83.1125 226.619 82.1332C230.251 82.6588 232.799 82.029 236.431 82.5546Z" stroke="black" stroke-width="3" stroke-linecap="round"/>
<path opacity="0.99" d="M176.864 83.1865C181.412 83.125 178.901 87.7645 176.617 84.6796C174.464 84.0432 171.13 86.6381 169.283 87.5653C171.391 91.3856 165.105 88.6728 168.438 85.6178C171.558 83.8893 173.29 83.6038 176.864 83.1865Z" stroke="black" stroke-width="3" stroke-linecap="round"/>
<path d="M251.328 65.8254C251.328 65.8254 256.799 70.324 265.44 66.7773C276.03 62.4305 280.407 60.3177 289.371 50.006C294.127 44.536 300.429 38.4705 304.343 35.5964C311.32 30.4737 327.107 21.0814 327.837 21.6187C328.064 21.7858 322.25 27.7423 314.917 34.8555C301.401 47.9654 297.224 52.8403 298.059 54.5332C299.2 56.8453 313.17 53.8756 323.104 49.2092C326.737 47.5025 329.439 45.1372 334.474 39.2565C339.728 33.1184 343.043 30.2672 350.7 25.2999C360.542 18.9143 367.089 14.5613 362.599 18.5684C358.236 22.4622 347.443 35.145 346.413 37.7582C343.973 43.9492 345.985 45.5585 354.813 44.4745C361.71 43.6275 365.811 42.1492 372.856 35.5902C380.051 28.892 392.511 24.8249 393.162 24.3662C394.723 23.266 390.724 27.2416 385.791 31.9341C376.804 40.4828 374.196 44.7358 379.299 45.8878C383.69 46.8792 388.375 45.695 394.153 42.1327C398.452 39.4822 401.825 37.5676 407.172 36.5707C414.591 35.1875 423.576 36.8358 422.404 36.9019C421.938 36.9283 419.849 38.1914 416.617 38.9158C405.909 41.3168 395.945 47.1145 396.334 50.2048C396.177 51.4021 398.724 54.6117 402.597 55.7481C412.587 58.6799 420.868 65.5244 425.398 72.8586C419.235 69.8759 412.121 66.2576 403.006 62.8435C370.044 49.5443 333.522 52.4659 275.401 75.2568C275.798 75.1351 266.555 79.8138 266.283 79.6143M251.094 65.7314C239.939 58.8217 221.677 40.7069 217.564 45.2693C214.296 48.8946 253.689 80.2896 253.689 80.2896C257.55 81.4158 261.399 82.5762 266.605 79.4907" fill="#F6D32D"/>
<path d="M251.328 65.8254C251.328 65.8254 256.799 70.324 265.44 66.7773C276.03 62.4305 280.407 60.3177 289.371 50.006C294.127 44.536 300.429 38.4705 304.343 35.5964C311.32 30.4737 327.107 21.0814 327.837 21.6187C328.064 21.7858 322.25 27.7423 314.917 34.8555C301.401 47.9654 297.224 52.8403 298.059 54.5332C299.2 56.8453 313.17 53.8756 323.104 49.2092C326.737 47.5025 329.439 45.1372 334.474 39.2565C339.728 33.1184 343.043 30.2672 350.7 25.2999C360.542 18.9143 367.089 14.5613 362.599 18.5684C358.236 22.4622 347.443 35.145 346.413 37.7582C343.973 43.9492 345.985 45.5585 354.813 44.4745C361.71 43.6275 365.811 42.1492 372.856 35.5902C380.051 28.892 392.511 24.8249 393.162 24.3662C394.723 23.266 390.724 27.2416 385.791 31.9341C376.804 40.4828 374.196 44.7358 379.299 45.8878C383.69 46.8792 388.375 45.695 394.153 42.1327C398.452 39.4822 401.825 37.5675 407.172 36.5707C414.591 35.1875 423.576 36.8358 422.404 36.9019C421.938 36.9283 419.849 38.1914 416.617 38.9158C405.909 41.3168 395.945 47.1145 396.334 50.2048C396.177 51.4021 398.724 54.6117 402.597 55.7481C412.587 58.6799 420.868 65.5244 425.398 72.8586C419.235 69.8759 412.121 66.2575 403.006 62.8435C370.044 49.5443 333.522 52.4659 275.401 75.2568C275.798 75.1351 266.555 79.8138 266.283 79.6143M251.094 65.7314C239.939 58.8217 221.677 40.7069 217.564 45.2693C214.296 48.8946 253.689 80.2896 253.689 80.2896C257.55 81.4158 261.399 82.5762 266.605 79.4907" stroke="black" stroke-width="3" stroke-linecap="round"/>
<path d="M250.676 62.0774C241.663 52.5539 228.652 30.3874 223.505 33.7478C219.414 36.4181 249.45 76.8101 249.45 76.8101C253.337 79.1748 257.314 81.8609 264.089 79.5107M250.56 62.0259C250.56 62.0259 254.82 68.4262 264.086 67.2024C275.441 65.7026 280.215 64.777 291.529 57.0975C297.531 53.0237 305.181 48.769 309.703 46.9897C317.764 43.8182 335.438 38.7675 336.006 39.4731C336.183 39.6925 329.033 43.9664 320.117 48.9706C303.684 58.1937 298.395 61.84 298.768 63.6891C299.278 66.2147 313.548 66.908 324.351 64.932C328.302 64.2093 331.127 61.4259 337.504 57.0263C344.159 52.4342 353.219 49.919 358.041 48.7067C366.891 46.4817 375.449 44.3247 368.372 47.0403C367.831 47.2478 351.493 57.5473 349.827 59.8102C345.879 65.1716 347.413 67.2404 356.226 68.4444C363.113 69.3851 366.797 67.7989 375.28 63.2334C385.018 57.9924 398.044 57.4423 400.933 56.3182C404.874 54.7848 392.162 62.6283 389.398 64.2261C378.689 70.416 374.901 73.6412 379.54 76.0564C383.532 78.1348 388.366 78.1852 394.867 76.2161C399.704 74.751 402.869 74.4226 408.295 74.8231C415.824 75.3787 422.394 78.0564 423.526 78.3671C430.885 80.3868 420.717 78.5951 417.414 78.8373C406.838 79.6129 392.523 82.9649 394.793 85.1067C393.701 88.0578 402.886 90.2728 410.72 95.8916C415.637 99.4179 422.266 104.789 424.62 110.047C421.027 107.893 398.35 98.0152 388.685 93.823C345.864 75.2498 315.893 74.6129 271.542 77.9389C264.598 78.7449 264.332 79.7161 264.121 79.4541" fill="#F6D32D"/>
<path d="M250.676 62.0774C241.663 52.5539 228.652 30.3874 223.505 33.7478C219.414 36.4181 249.45 76.8101 249.45 76.8101C253.337 79.1748 257.314 81.8609 264.089 79.5107M250.56 62.0259C250.56 62.0259 254.82 68.4262 264.086 67.2024C275.441 65.7026 280.215 64.777 291.529 57.0974C297.531 53.0237 305.181 48.769 309.703 46.9897C317.764 43.8182 335.438 38.7675 336.006 39.4731C336.183 39.6925 329.033 43.9664 320.117 48.9706C303.684 58.1937 298.395 61.84 298.768 63.6891C299.278 66.2147 313.548 66.908 324.351 64.932C328.302 64.2093 331.127 61.4259 337.504 57.0263C344.159 52.4342 353.219 49.919 358.041 48.7067C366.891 46.4817 375.449 44.3247 368.372 47.0403C367.831 47.2478 351.493 57.5473 349.827 59.8102C345.879 65.1716 347.413 67.2403 356.226 68.4444C363.113 69.3851 366.797 67.7989 375.28 63.2334C385.018 57.9924 398.044 57.4423 400.933 56.3182C404.874 54.7848 392.162 62.6283 389.398 64.2261C378.689 70.416 374.901 73.6412 379.54 76.0564C383.532 78.1348 388.366 78.1852 394.867 76.2161C399.704 74.751 402.869 74.4226 408.295 74.8231C415.824 75.3787 422.394 78.0564 423.526 78.3671C430.885 80.3868 420.717 78.5951 417.414 78.8373C406.838 79.6129 392.523 82.9649 394.793 85.1067C393.701 88.0578 402.886 90.2728 410.72 95.8916C415.637 99.4179 422.266 104.789 424.62 110.047C421.027 107.893 398.35 98.0152 388.685 93.823C345.864 75.2498 315.893 74.6129 271.542 77.9389C264.598 78.7449 264.332 79.7161 264.121 79.4541" stroke="black" stroke-width="3" stroke-linecap="round"/>
<path opacity="0.99" d="M276.561 89.4058C280.634 87.5696 286.608 86.1906 290.981 86.9681C294.659 87.8309 299.94 88.1192 301.53 92.0356C302.08 96.1167 296.88 97.0379 293.892 97.5607C288.52 98.0937 282.259 98.3425 277.732 95.0508M323.59 385.204C319.875 385.872 322.336 387.758 315.963 393.26C331.166 398.477 341.016 398.399 354.082 395.037M205.373 316.31C196.198 312.185 178.021 303.199 170.067 297.213C156.517 288.033 146.345 282.704 136.21 281.455C122.306 283.525 114.252 293.515 108.531 303.765C105.783 309.411 102.611 316.256 105.76 323.472C108.783 326.773 108.08 325.983 103.787 328.93C98.3908 333.743 99.1176 338.493 100.518 341.271C100.872 342.182 101.715 343.023 101.063 344.839C96.1285 351.417 92.4882 355.669 86.257 358.667C83.9768 359.074 84.1676 357.042 83.4188 355.802L82.2372 347.016C84.0994 344.216 88.9208 341.675 90.8469 340.19C89.6981 339.298 84.3564 341.261 82.1846 343.623C82.1245 334.845 84.3972 324.084 86.9729 315.095C90.2077 308.109 95.5613 304.3 99.7877 297.767C102.793 293.445 104.586 288.167 108.673 283.134L122.53 266.108C128.461 261.247 133.026 261.278 143.208 263.061C152.083 264.563 163.045 268.235 173.055 270.551M229.833 307.677C228.83 312.214 224.279 317.128 218.924 318.079C209.437 319.704 204.682 315.889 204.935 316.222C210.86 321.579 215.298 327.027 224.662 332.308C246.427 345.997 266.897 357.465 288.521 369.474C304.87 378.198 321.955 386.022 340.335 389.311C342.709 389.468 348.548 391.355 350.789 390.511M179.149 216.316C168.092 234.782 167.42 248.085 170.497 269.513M427.519 345.856C436.108 344.647 425.405 318.475 445.491 314.47C444.346 319.322 429.856 333.956 446.408 322.441C445.31 326.751 436.099 336.377 446.684 332.548C442.246 338.802 434.366 358.746 426.794 347.983C424.846 352.368 420.057 365.971 418.838 370.095C417.952 376.222 417.166 382.985 417.394 389.371C417.634 398.357 418.939 406.045 421.879 414.363C426.182 426.534 429.822 433.096 435.858 441.286C439.234 445.239 442.345 447.271 440.852 452.925C438.85 458.796 437.773 463.486 436.6 470.919C434.256 481.16 433.165 491.417 431.568 501.776L428.218 528.233C427.274 535.408 425.859 542.727 426.501 550.23C427.284 556.116 424.765 556.008 421.907 557.809C417.05 562.111 417.524 572.146 411.11 577.861C399.658 585.068 387.808 577.48 390.349 575.409L398.896 568.444C406.571 572.417 408.785 569.65 409.339 569.188C404.308 570.996 400.513 568.625 400.142 567.434C401.62 565.761 406.035 561.537 406.781 559.3C409.24 553.594 410.609 546.882 411.588 540.765L416.973 500.825C417.682 490.628 418.723 480.681 417.972 470.56C416.575 460.925 414.236 451.878 410.286 443.897C405.558 435.993 399.171 428.964 393.611 423.442C375.456 407.969 353.141 403.517 339.434 371.246M389.439 300.704C406.55 310.081 429.471 324.133 427.476 346.149M389.161 300.321C389.161 300.321 362.502 285.733 349.398 277.77C334.557 267.525 321.903 256.769 308.145 246.402C299.059 238.429 291.691 221.626 291.212 219.472C289.552 215.92 284.677 205.352 282.904 202.505M169.801 240.688C164.942 234.911 167.987 236.927 163.425 232.47C156.081 225.212 151.348 222.793 143.692 223.406L122.572 229.504C116.333 231.308 111.834 234.62 106.89 236.457C99.6785 239.412 93.1385 239.439 86.4815 243.33C79.2194 249.241 71.2049 256.804 66.2294 264.041C69.366 263.339 75.4064 264.242 75.8395 265.627C73.4067 265.75 67.4864 266.025 64.3538 267.262L60.2567 274.71C60.1619 276.154 58.8516 277.751 60.9581 278.715C67.7936 279.802 73.2094 278.37 81.0288 275.781C82.6041 274.661 82.4061 273.48 82.6368 272.53C83.0766 269.453 85.187 265.196 92.3749 264.318C97.5888 264.344 97.6845 265.346 97.0909 260.917C98.6348 253.203 105.19 249.393 110.68 246.324C121.172 243.791 145.545 240.14 146.979 243.237C150.121 245.712 157.513 254.489 164.574 268.181M390.006 420.589C390.893 419.828 388.925 421.106 387.951 436.95C387.984 440.705 391.562 444.842 387.345 450.008L370.484 471.228L356.039 490.046L344.103 508.499C341.438 515.623 337.301 519.58 337.47 530.385C337.877 536.216 335.823 535.301 333.332 535.231C328.399 534.142 328.524 538.173 327.895 540.601C326.203 546.994 325.633 551.354 321.759 556.187C319.179 560.72 300.233 556.437 302.751 552.594C305.97 548.635 305.621 549.109 308.018 545.102C323.692 548.568 312.853 544.919 308.754 543.999L322.339 522.642L330.944 506.008L345.469 482.225C350.4 472.737 354.991 462.245 358.598 451.981C361.655 444.147 362.113 441.151 362.029 433.055C361.628 424.528 361.118 416.655 357.614 408.255C356.089 404.935 355.415 399.587 354.385 394.714M291.167 82.1123C281.99 80.3169 275.982 83.5517 268.52 86.4794C266.802 86.7593 263.346 88.9538 261.737 88.041C260.123 85.8921 266.647 85.9729 267.718 85.0504C271.604 83.8463 264.888 82.4511 263.38 81.4458C260.064 80.5346 256.329 82.4217 253.148 80.5737C250.046 79.0613 247.846 74.7472 244.013 75.1539C230.593 73.8796 217.337 79.0974 204.056 80.1788C194.209 81.6335 185.184 79.3531 175.315 79.2962C166.453 78.0391 159.783 89.9647 161.546 97.1318C166.654 96.4027 174.05 92.6753 178.909 96.7423C178.58 98.4239 167.023 97.1047 163.44 100.37C165.295 104.647 171.647 104.159 178.39 104.323C187.323 105.026 196.294 106.776 204.18 111.152C211.364 114.481 216.553 121.321 223.696 124.61C225.786 124.458 228.578 121.048 230.347 121.142C229.432 123.954 226.071 127.198 222.251 126.273C219.393 125.487 218.598 126.611 217.619 129.943C208.533 143.492 203.995 159.886 192.593 171.854C187.968 177.55 178.418 190.475 174.786 196.829C182.905 193.578 195.719 182.993 194.563 185.479C193.354 188.081 171.573 210.566 166.581 224.658C169.039 223.649 189.341 208.597 191.532 210.906C185.418 222.043 178.585 238.627 176.915 250.568C183.093 245.399 197.095 230.379 204.985 227.438C200.971 234.571 197.027 255.683 200.658 263.613C207.794 256.425 214.854 245.556 224.125 236.931C227.714 249.838 225.381 235.393 232.928 266.066C241.01 256.736 242.958 244.505 248.685 233.62C255.263 241.318 258.195 250.449 260.153 257.962C269.835 246.46 265.34 232.592 268.714 218.157C276.982 222.997 279.801 230.633 283.016 237.73C287.971 223.721 283.426 219.052 283.211 203.203C281.348 193.116 276.118 181.08 276.794 170.642C277.727 153.996 279.699 137.334 278.356 120.641C278.025 115.585 277.961 109.496 277.463 104.481C272.447 101.65 270.57 102.949 267.214 102.639C268.936 100.562 274.744 102.455 277.562 102.699C287.239 105.621 294.32 104.791 303.646 101.312C307.586 99.8472 311.309 97.6221 314.237 94.623C311.25 91.1157 306.967 87.6957 302.811 85.5598C299.74 84.184 294.509 82.4502 291.167 82.1123Z" stroke="black" stroke-width="3" stroke-linecap="round" stroke-linejoin="round"/>
<path d="M429.619 445.436C432.556 447.923 432.735 450.589 431.321 459.031C433.826 455.227 437.024 446.533 429.619 445.436Z" stroke="black" stroke-width="3"/>
<path d="M381.685 437.775C381.994 443.684 382.219 443.833 378.14 451.445C382.572 450.023 384.732 441.291 381.685 437.775Z" stroke="black" stroke-width="3"/>
<path d="M232.919 86.6599C232.867 87.0228 232.709 87.3668 232.453 87.6721C232.197 87.9774 231.848 88.2381 231.428 88.4392C231.007 88.6404 230.522 88.7781 230.001 88.8445C229.48 88.9109 228.933 88.9047 228.39 88.8262C227.848 88.7477 227.321 88.5985 226.84 88.3871C226.359 88.1757 225.933 87.9062 225.587 87.5941C225.24 87.2819 224.98 86.9332 224.821 86.5679C224.662 86.2026 224.608 85.8278 224.661 85.4649C224.713 85.102 224.871 84.7581 225.127 84.4528C225.383 84.1475 225.731 83.8868 226.152 83.6856C226.573 83.4845 227.057 83.3467 227.579 83.2803C228.1 83.2139 228.647 83.2202 229.19 83.2987C229.732 83.3771 230.259 83.5264 230.74 83.7378C231.221 83.9492 231.647 84.2187 231.993 84.5308C232.34 84.843 232.6 85.1916 232.759 85.557C232.918 85.9223 232.972 86.2971 232.919 86.6599Z" fill="#3584E4" stroke="black" stroke-width="3"/>
</g>
<path d="M1.5 2.17651H598.5L581.448 3.96522L581.448 3.96527C565.449 6.48294 533.449 11.5184 514.93 30.037C496.412 48.5549 491.377 80.5552 472.859 99.073C454.341 117.591 422.341 122.626 403.822 141.145C385.304 159.663 380.269 191.663 361.751 210.181C343.233 228.699 311.232 233.735 292.714 252.253C274.196 270.771 269.161 302.771 250.643 321.289C232.124 339.808 200.124 344.843 181.606 363.361C163.088 381.879 158.052 413.879 139.535 432.397C121.016 450.916 89.0155 455.952 73.0162 458.469L58.3486 460.712C24.7859 406.672 1.5 340.453 1.5 260.728V2.17651Z" stroke="black" stroke-width="3"/>
<path fill-rule="evenodd" clip-rule="evenodd" d="M300 658.5C300 658.5 598.5 546.18 598.5 260.728C598.5 -24.7234 598.5 2.1765 598.5 2.1765H1.5V260.728C1.5 546.18 300 658.5 300 658.5Z" stroke="black" stroke-width="3"/>
</g>
<defs>
<clipPath id="clip0_45_2186">
<rect width="600" height="660" fill="white" transform="matrix(-1 0 0 1 600 0)"/>
</clipPath>
</defs>
</svg>
