<svg width="600" height="661" viewBox="0 0 600 661" fill="none" xmlns="http://www.w3.org/2000/svg">
<g clip-path="url(#clip0_41_1179)">
<path fill-rule="evenodd" clip-rule="evenodd" d="M0 0.365967V260.796C0 274.376 0.672315 287.558 1.94724 300.366H300V0.365967H0Z" fill="black"/>
<path fill-rule="evenodd" clip-rule="evenodd" d="M300 300.366V658.866C300 658.866 570.474 556.909 596 300.366H300Z" fill="black"/>
<path fill-rule="evenodd" clip-rule="evenodd" d="M300 300.366V660.366C300 660.366 27.6985 557.983 2 300.366H300Z" fill="#26A269"/>
<path fill-rule="evenodd" clip-rule="evenodd" d="M600 0.365967V260.796C600 274.376 599.328 287.558 598.053 300.366H300V0.365967H600Z" fill="#26A269"/>
<path d="M302 2.36597H298V658.366H302V2.36597Z" fill="black"/>
<path d="M598 302.366V298.366H2V302.366H598Z" fill="black"/>
<path fill-rule="evenodd" clip-rule="evenodd" d="M300 658.866C300 658.866 1.5 546.546 1.5 261.094C1.5 -24.3573 1.5 1.92384 1.5 1.92384L598.5 1.86525V261.094C598.5 546.546 300 658.866 300 658.866Z" stroke="black" stroke-width="3"/>
<path fill-rule="evenodd" clip-rule="evenodd" d="M319.908 183.008C346.603 182.065 366.769 174.107 399.809 179.934C426.426 184.63 446.981 199.037 419.279 213.469L375.893 236.072C356.804 246.017 324.485 228.153 302.458 218.781" fill="#E7E7E7"/>
<path d="M319.908 183.008C346.603 182.065 366.769 174.107 399.809 179.934C426.426 184.63 446.981 199.037 419.279 213.469L375.893 236.072C356.804 246.017 324.485 228.153 302.458 218.781" stroke="black" stroke-width="3" stroke-linecap="round" stroke-linejoin="round"/>
<path fill-rule="evenodd" clip-rule="evenodd" d="M268.117 194.142C260.276 190.58 218.761 200.474 215.13 203.45C211.028 206.81 203.444 209.861 196.472 214.056C188.7 218.732 180.714 227.454 177.281 230.954C168.455 239.954 165.818 253.87 156.787 263.583C133.626 288.492 105.971 323.709 110.35 338.009C112.844 346.152 111.203 354.68 120.359 356.358C126.414 357.468 131.645 355.506 137.577 353.153L165.461 342.088C148.913 353.971 129.712 354.017 134.926 366.207C139.147 376.081 153.685 377.698 177.166 366.218C196.292 356.867 208.687 365.865 228.5 367.115C239.685 367.819 258.745 359.037 266.091 356.393L343.122 331.684" fill="#E7E7E7"/>
<path d="M268.117 194.142C260.276 190.58 218.761 200.474 215.13 203.45C211.028 206.81 203.444 209.861 196.472 214.056C188.7 218.732 180.714 227.454 177.281 230.954C168.455 239.954 165.818 253.87 156.787 263.583C133.626 288.492 105.971 323.709 110.35 338.009C112.844 346.152 111.203 354.68 120.359 356.358C126.414 357.468 131.645 355.506 137.577 353.153L165.461 342.088C148.913 353.971 129.712 354.017 134.926 366.207C139.147 376.081 153.685 377.698 177.166 366.218C196.292 356.867 208.687 365.865 228.5 367.115C239.685 367.819 258.745 359.037 266.091 356.393L343.122 331.684" stroke="black" stroke-width="3" stroke-linecap="round" stroke-linejoin="round"/>
<path d="M285.362 169.58C281.266 169.627 277.151 172.217 273.823 178.426C254.708 168.557 237.893 173.039 242.392 185.46C226.689 183.769 218.887 188.476 210.797 196.724C193.715 214.142 226.318 230.675 244.865 230.023C247.419 237.119 240.598 258.835 269.922 248.486C265.868 261.901 262.113 282.36 282.065 283.653L304.924 323.82C300.49 345.315 276.724 349.686 266.075 356.404C259.686 373.756 267 388.219 266.02 397.67C246.039 416.861 263.51 422.052 270.471 440.86C255.653 451.41 261.168 459.415 268.548 468.004C347.226 461.123 416.233 437.118 469.274 378.823C466.233 375.941 463.544 373.842 462.351 372.944C467.661 353.458 452.378 345.708 439.712 331.018C445.859 312.744 430.64 302.169 418.832 291.4C424.491 269.544 407.995 248.713 399.6 227.66C392.378 195.905 363.686 194.705 348.992 190.13C343.575 173.799 317.209 165.934 299.539 179.525C295.902 173.619 290.628 169.518 285.362 169.58Z" fill="#E7E7E7" stroke="black" stroke-width="3" stroke-linecap="round" stroke-linejoin="round"/>
<path d="M186.977 270.394C190.093 282.13 212.635 293.689 216.889 265.552" stroke="black" stroke-width="3" stroke-linecap="round" stroke-linejoin="round"/>
<path d="M223.36 264.453C203.523 269.476 190.502 259.473 180.001 278.24" stroke="black" stroke-width="3" stroke-linecap="round" stroke-linejoin="round"/>
<path d="M136.996 321.696C136.306 326.598 123.073 334.505 121.456 331.346C119.918 328.339 119.958 325.997 120.631 323.726" fill="#E7E7E7"/>
<path d="M136.996 321.696C136.306 326.598 123.073 334.505 121.456 331.346C119.918 328.339 119.958 325.997 120.631 323.726" stroke="black" stroke-width="3" stroke-linecap="round" stroke-linejoin="round"/>
<path d="M197.857 275.056C197.238 277.059 198.519 279.19 200.721 279.814C202.923 280.437 205.209 279.321 205.827 277.318C206.447 275.315 205.164 273.185 202.963 272.56C200.761 271.938 198.475 273.054 197.857 275.056Z" fill="black" stroke="black" stroke-width="3" stroke-linecap="round" stroke-linejoin="round"/>
<path fill-rule="evenodd" clip-rule="evenodd" d="M363.514 228.812C387.633 239.57 409.584 241.344 435.831 260.794C456.976 276.465 467.75 298.021 435.794 298.656L385.74 299.651C363.72 300.087 344.311 270.392 329.639 252.613" fill="#E7E7E7"/>
<path d="M363.514 228.812C387.633 239.57 409.584 241.344 435.831 260.794C456.976 276.465 467.75 298.021 435.794 298.656L385.74 299.651C363.72 300.087 344.311 270.392 329.639 252.613" stroke="black" stroke-width="3" stroke-linecap="round" stroke-linejoin="round"/>
<path fill-rule="evenodd" clip-rule="evenodd" d="M297.855 228.342C319.726 187.303 357.633 179.889 385.913 183.862C416.635 188.178 431.218 210.067 433.576 233.445C435.936 256.837 422.739 283.899 390.003 284.558C356.933 285.223 343.107 267.7 340.698 245.289C338.43 224.18 359.798 216.469 377.036 214.344C395.143 212.11 405.617 225.801 411.536 237.59C419.377 228.606 422.428 209.099 405.694 204.928C402.148 202.784 402.817 199.817 398.611 197.043C394.405 194.269 386.172 192.017 377.086 195.763C373.528 189.365 355.022 192.883 350.624 200.072C342.041 199.323 328.331 202.169 327.425 213.328C313.629 216.483 307.324 227.505 311.191 243.53C303.221 251.955 303.329 262.429 315.703 270.932C310.595 281.495 312.362 293.59 329.908 295.44C331.4 313.132 349.898 315.084 358.19 311.896C367.671 321.887 381.777 325.999 388.555 317.124C402.075 327.304 415.23 320.677 420.296 312.05C435.51 313.702 444.505 306.413 449.24 297.71C460.137 295.613 469.603 284.809 469.172 275.5C480.654 268.174 480.365 257.231 475.065 248.804C483.318 241.533 483.661 231.118 474.433 222.428C483.456 209.042 476.933 194.854 463.518 187.941C464.624 171.023 451.629 158.051 433.95 158.377C423.668 139.191 410.523 134.988 391.219 140.095C380.909 128.661 359.021 127.227 346.671 135.83C331.985 131.936 314.138 133.871 302.717 147.249C279.103 148.406 265.732 164.623 266.415 179.756C247.221 187.016 242.924 195.162 241.46 203.687C237.902 224.41 291.893 239.531 297.855 228.342Z" fill="#F6D32D" stroke="black" stroke-width="3" stroke-linecap="round" stroke-linejoin="round"/>
<path d="M266.414 179.758C280.807 186.83 296.178 187.871 314.126 205.358" stroke="black" stroke-width="3" stroke-linecap="round" stroke-linejoin="round"/>
<path d="M302.717 147.251C324.416 162.575 327.096 176.328 336.02 190.25" stroke="black" stroke-width="3" stroke-linecap="round" stroke-linejoin="round"/>
<path d="M346.67 135.832C355.68 153.149 361.818 168.987 361.882 182.688" stroke="black" stroke-width="3" stroke-linecap="round" stroke-linejoin="round"/>
<path d="M391.218 140.095C393.193 155.656 389.641 169.441 385.926 183.422" stroke="black" stroke-width="3" stroke-linecap="round" stroke-linejoin="round"/>
<path d="M433.95 158.377C429.779 172.169 419.313 182.075 410.151 192.275" stroke="black" stroke-width="3" stroke-linecap="round" stroke-linejoin="round"/>
<path d="M463.518 187.941C451.814 197.327 439.203 204.824 424.57 207.753" stroke="black" stroke-width="3" stroke-linecap="round" stroke-linejoin="round"/>
<path d="M474.432 222.428C460.598 224.905 446.981 226.907 433.828 227.321" stroke="black" stroke-width="3" stroke-linecap="round" stroke-linejoin="round"/>
<path d="M475.066 248.804C460.345 249.329 446.605 248.148 434.393 243.78" stroke="black" stroke-width="3" stroke-linecap="round" stroke-linejoin="round"/>
<path d="M469.171 275.5C455.256 272.496 441.914 267.851 429.691 259.718" stroke="black" stroke-width="3" stroke-linecap="round" stroke-linejoin="round"/>
<path d="M449.24 297.71C437.332 292.624 427.433 284.123 420.172 273.116" stroke="black" stroke-width="3" stroke-linecap="round" stroke-linejoin="round"/>
<path d="M420.296 312.05C413.062 303.504 408.028 293.528 406.355 281.724" stroke="black" stroke-width="3" stroke-linecap="round" stroke-linejoin="round"/>
<path d="M388.554 317.124C386.452 306.678 385.982 297.633 388.953 285.396" stroke="black" stroke-width="3" stroke-linecap="round" stroke-linejoin="round"/>
<path d="M358.189 311.896C358.508 300.421 363.467 290.776 368.378 281.361" stroke="black" stroke-width="3" stroke-linecap="round" stroke-linejoin="round"/>
<path d="M329.908 295.439C335.805 286.994 344.304 280.006 355.476 274.628" stroke="black" stroke-width="3" stroke-linecap="round" stroke-linejoin="round"/>
<path d="M315.703 270.932C324.153 265.36 333.519 261.707 344.867 260.943" stroke="black" stroke-width="3" stroke-linecap="round" stroke-linejoin="round"/>
<path d="M311.19 243.529C320.707 242.037 330.747 242.655 340.698 245.289" stroke="black" stroke-width="3" stroke-linecap="round" stroke-linejoin="round"/>
<path d="M327.425 213.327C335.205 216.452 340.598 222.173 345.539 228.492" stroke="black" stroke-width="3" stroke-linecap="round" stroke-linejoin="round"/>
<path d="M350.625 200.072C354.505 205.175 358.617 209.593 359.78 217.752" stroke="black" stroke-width="3" stroke-linecap="round" stroke-linejoin="round"/>
<path d="M377.086 195.763C377.936 201.835 379.773 207.314 377.076 213.907" stroke="black" stroke-width="3" stroke-linecap="round" stroke-linejoin="round"/>
<path d="M405.694 204.928C403.821 209.788 399.537 213.214 395.441 216.656" stroke="black" stroke-width="3" stroke-linecap="round" stroke-linejoin="round"/>
</g>
<defs>
<clipPath id="clip0_41_1179">
<rect width="600" height="660" fill="white" transform="translate(0 0.365967)"/>
</clipPath>
</defs>
</svg>
