<svg width="601" height="661" viewBox="0 0 601 661" fill="none" xmlns="http://www.w3.org/2000/svg">
<g clip-path="url(#clip0_36_17)">
<path fill-rule="evenodd" clip-rule="evenodd" d="M300.905 658.579C300.905 658.579 599.405 546.259 599.405 260.807C599.405 -24.6445 599.405 2.25535 599.405 2.25535H2.40454V260.807C2.40454 546.259 300.905 658.579 300.905 658.579Z" fill="white"/>
<path d="M2.40454 0.901855C2.40454 0.901855 2.40454 16.6209 2.40454 199.399H599.402V1.57886H2.40454V0.901855Z" fill="#E20909" stroke="#010101" stroke-width="3"/>
<mask id="path-3-inside-1_36_17" fill="white">
<path fill-rule="evenodd" clip-rule="evenodd" d="M126.46 90.5409C127.828 70.4297 133.507 50.8617 143.118 33.3288C142.249 31.7442 141 30.4283 139.495 29.5134C137.99 28.5985 136.284 28.1169 134.547 28.1169C132.809 28.1169 131.103 28.5985 129.598 29.5134C128.094 30.4283 126.844 31.7442 125.976 33.3288C125.976 30.1595 125.183 27.0461 123.679 24.3014C122.174 21.5567 120.01 19.2775 117.404 17.6929C114.799 19.2775 112.635 21.5568 111.13 24.3014C109.626 27.0461 108.834 30.1596 108.834 33.3288C107.965 31.7441 106.716 30.4282 105.211 29.5132C103.707 28.5983 102 28.1166 100.262 28.1166C98.5252 28.1166 96.8185 28.5983 95.3139 29.5132C93.8094 30.4282 92.56 31.7441 91.6914 33.3288C101.302 50.8617 106.981 70.4297 108.349 90.5409C89.2545 89.1005 70.6759 83.119 54.0295 72.9964C52.5249 73.9113 51.2756 75.2272 50.4069 76.8118C49.5383 78.3965 49.081 80.194 49.081 82.0238C49.081 83.8536 49.5383 85.6512 50.4069 87.2358C51.2756 88.8205 52.5249 90.1364 54.0295 91.0512C51.0204 91.0513 48.0644 91.8855 45.4585 93.4702C42.8525 95.0549 40.6886 97.3341 39.1841 100.079C40.6886 102.823 42.8526 105.103 45.4585 106.687C48.0644 108.272 51.0204 109.106 54.0295 109.106C52.5249 110.021 51.2755 111.337 50.4068 112.922C49.5381 114.506 49.0808 116.304 49.0808 118.134C49.0808 119.963 49.5381 121.761 50.4068 123.346C51.2755 124.93 52.5249 126.246 54.0295 127.161C70.6759 117.039 89.2545 111.057 108.349 109.617C106.981 129.728 101.302 149.296 91.6914 166.829C92.56 168.414 93.8094 169.73 95.3139 170.644C96.8185 171.559 98.5252 172.041 100.262 172.041C102 172.041 103.707 171.559 105.211 170.644C106.716 169.73 107.965 168.414 108.834 166.829C108.834 169.998 109.626 173.112 111.13 175.856C112.635 178.601 114.799 180.88 117.404 182.465C120.01 180.88 122.174 178.601 123.679 175.856C125.183 173.112 125.976 169.998 125.976 166.829C126.844 168.413 128.094 169.729 129.598 170.644C131.103 171.559 132.809 172.041 134.547 172.041C136.284 172.041 137.99 171.559 139.495 170.644C141 169.729 142.249 168.413 143.118 166.829C133.507 149.296 127.828 129.728 126.46 109.617C145.554 111.057 164.133 117.039 180.779 127.161C182.284 126.246 183.533 124.93 184.402 123.346C185.271 121.761 185.728 119.963 185.728 118.134C185.728 116.304 185.271 114.506 184.402 112.922C183.533 111.337 182.284 110.021 180.779 109.106C183.788 109.106 186.744 108.272 189.35 106.687C191.956 105.103 194.12 102.823 195.625 100.079C194.12 97.3341 191.956 95.0549 189.35 93.4702C186.745 91.8856 183.789 91.0513 180.779 91.0512C182.284 90.1364 183.533 88.8205 184.402 87.2358C185.271 85.6512 185.728 83.8536 185.728 82.0238C185.728 80.194 185.271 78.3965 184.402 76.8118C183.533 75.2272 182.284 73.9113 180.779 72.9964C164.133 83.119 145.554 89.1005 126.46 90.5409Z"/>
</mask>
<path fill-rule="evenodd" clip-rule="evenodd" d="M126.46 90.5409C127.828 70.4297 133.507 50.8617 143.118 33.3288C142.249 31.7442 141 30.4283 139.495 29.5134C137.99 28.5985 136.284 28.1169 134.547 28.1169C132.809 28.1169 131.103 28.5985 129.598 29.5134C128.094 30.4283 126.844 31.7442 125.976 33.3288C125.976 30.1595 125.183 27.0461 123.679 24.3014C122.174 21.5567 120.01 19.2775 117.404 17.6929C114.799 19.2775 112.635 21.5568 111.13 24.3014C109.626 27.0461 108.834 30.1596 108.834 33.3288C107.965 31.7441 106.716 30.4282 105.211 29.5132C103.707 28.5983 102 28.1166 100.262 28.1166C98.5252 28.1166 96.8185 28.5983 95.3139 29.5132C93.8094 30.4282 92.56 31.7441 91.6914 33.3288C101.302 50.8617 106.981 70.4297 108.349 90.5409C89.2545 89.1005 70.6759 83.119 54.0295 72.9964C52.5249 73.9113 51.2756 75.2272 50.4069 76.8118C49.5383 78.3965 49.081 80.194 49.081 82.0238C49.081 83.8536 49.5383 85.6512 50.4069 87.2358C51.2756 88.8205 52.5249 90.1364 54.0295 91.0512C51.0204 91.0513 48.0644 91.8855 45.4585 93.4702C42.8525 95.0549 40.6886 97.3341 39.1841 100.079C40.6886 102.823 42.8526 105.103 45.4585 106.687C48.0644 108.272 51.0204 109.106 54.0295 109.106C52.5249 110.021 51.2755 111.337 50.4068 112.922C49.5381 114.506 49.0808 116.304 49.0808 118.134C49.0808 119.963 49.5381 121.761 50.4068 123.346C51.2755 124.93 52.5249 126.246 54.0295 127.161C70.6759 117.039 89.2545 111.057 108.349 109.617C106.981 129.728 101.302 149.296 91.6914 166.829C92.56 168.414 93.8094 169.73 95.3139 170.644C96.8185 171.559 98.5252 172.041 100.262 172.041C102 172.041 103.707 171.559 105.211 170.644C106.716 169.73 107.965 168.414 108.834 166.829C108.834 169.998 109.626 173.112 111.13 175.856C112.635 178.601 114.799 180.88 117.404 182.465C120.01 180.88 122.174 178.601 123.679 175.856C125.183 173.112 125.976 169.998 125.976 166.829C126.844 168.413 128.094 169.729 129.598 170.644C131.103 171.559 132.809 172.041 134.547 172.041C136.284 172.041 137.99 171.559 139.495 170.644C141 169.729 142.249 168.413 143.118 166.829C133.507 149.296 127.828 129.728 126.46 109.617C145.554 111.057 164.133 117.039 180.779 127.161C182.284 126.246 183.533 124.93 184.402 123.346C185.271 121.761 185.728 119.963 185.728 118.134C185.728 116.304 185.271 114.506 184.402 112.922C183.533 111.337 182.284 110.021 180.779 109.106C183.788 109.106 186.744 108.272 189.35 106.687C191.956 105.103 194.12 102.823 195.625 100.079C194.12 97.3341 191.956 95.0549 189.35 93.4702C186.745 91.8856 183.789 91.0513 180.779 91.0512C182.284 90.1364 183.533 88.8205 184.402 87.2358C185.271 85.6512 185.728 83.8536 185.728 82.0238C185.728 80.194 185.271 78.3965 184.402 76.8118C183.533 75.2272 182.284 73.9113 180.779 72.9964C164.133 83.119 145.554 89.1005 126.46 90.5409Z" fill="white"/>
<path d="M143.118 33.3288L145.748 34.7709L146.539 33.3288L145.748 31.8868L143.118 33.3288ZM126.46 90.5409L123.467 90.3374L123.232 93.7929L126.686 93.5324L126.46 90.5409ZM139.495 29.5134L141.054 26.9501L141.054 26.9501L139.495 29.5134ZM129.598 29.5134L131.157 32.0767L131.157 32.0767L129.598 29.5134ZM125.976 33.3288L122.976 33.3288L128.606 34.7709L125.976 33.3288ZM117.404 17.6929L118.963 15.1296L117.404 14.1817L115.846 15.1296L117.404 17.6929ZM108.834 33.3288L106.203 34.7708L111.834 33.3288L108.834 33.3288ZM105.211 29.5132L106.77 26.95L106.77 26.95L105.211 29.5132ZM95.3139 29.5132L96.8727 32.0765L96.8727 32.0765L95.3139 29.5132ZM91.6914 33.3288L89.0607 31.8869L88.2703 33.3289L89.0607 34.7709L91.6914 33.3288ZM108.349 90.5409L108.123 93.5324L111.577 93.7929L111.342 90.3374L108.349 90.5409ZM54.0295 72.9964L55.5882 70.4331L54.0295 69.4853L52.4707 70.4331L54.0295 72.9964ZM50.4069 76.8118L53.0376 78.2539L53.0376 78.2539L50.4069 76.8118ZM54.0295 91.0512L54.0295 94.0512L64.7368 94.0512L55.5882 88.488L54.0295 91.0512ZM39.1841 100.079L36.5534 98.6368L35.7629 100.079L36.5534 101.521L39.1841 100.079ZM45.4585 106.687L47.0172 104.124L45.4585 106.687ZM54.0295 109.106L55.5881 111.669L64.7375 106.106L54.0294 106.106L54.0295 109.106ZM50.4068 112.922L53.0374 114.364L53.0374 114.364L50.4068 112.922ZM50.4068 123.346L47.7761 124.788L47.7761 124.788L50.4068 123.346ZM54.0295 127.161L52.4708 129.725L54.0295 130.672L55.5882 129.724L54.0295 127.161ZM108.349 109.617L111.342 109.82L111.577 106.365L108.123 106.625L108.349 109.617ZM91.6914 166.829L89.0607 165.387L88.2703 166.829L89.0607 168.271L91.6914 166.829ZM95.3139 170.644L93.7552 173.208L93.7552 173.208L95.3139 170.644ZM105.211 170.644L106.77 173.208L106.77 173.208L105.211 170.644ZM108.834 166.829L111.834 166.829L106.203 165.387L108.834 166.829ZM111.13 175.856L108.499 177.298V177.298L111.13 175.856ZM117.404 182.465L115.846 185.028L117.404 185.976L118.963 185.028L117.404 182.465ZM123.679 175.856L121.048 174.414L121.048 174.414L123.679 175.856ZM125.976 166.829L128.606 165.387L122.976 166.829L125.976 166.829ZM129.598 170.644L131.157 168.081L131.157 168.081L129.598 170.644ZM139.495 170.644L137.936 168.081H137.936L139.495 170.644ZM143.118 166.829L145.748 168.271L146.539 166.829L145.748 165.387L143.118 166.829ZM126.46 109.617L126.686 106.625L123.232 106.365L123.467 109.82L126.46 109.617ZM180.779 127.161L179.221 129.724L180.779 130.672L182.338 129.725L180.779 127.161ZM184.402 123.346L181.771 121.904L181.771 121.904L184.402 123.346ZM184.402 112.922L181.771 114.364L181.771 114.364L184.402 112.922ZM180.779 109.106L180.779 106.106L170.072 106.106L179.221 111.669L180.779 109.106ZM189.35 106.687L187.792 104.124L189.35 106.687ZM195.625 100.079L198.255 101.521L199.046 100.079L198.255 98.6368L195.625 100.079ZM189.35 93.4702L187.792 96.0335H187.792L189.35 93.4702ZM180.779 91.0512L179.221 88.488L170.072 94.0511L180.779 94.0512L180.779 91.0512ZM184.402 87.2358L187.033 88.6779L187.033 88.6778L184.402 87.2358ZM184.402 76.8118L187.033 75.3698V75.3698L184.402 76.8118ZM180.779 72.9964L182.338 70.4331L180.779 69.4853L179.221 70.4331L180.779 72.9964ZM140.487 31.8868C130.664 49.8069 124.864 69.7984 123.467 90.3374L129.453 90.7444C130.792 71.0611 136.35 51.9165 145.748 34.7709L140.487 31.8868ZM137.936 32.0767C138.979 32.7109 139.864 33.6348 140.487 34.7709L145.748 31.8868C144.634 29.8536 143.02 28.1457 141.054 26.9501L137.936 32.0767ZM134.547 31.1169C135.726 31.1169 136.895 31.4433 137.936 32.0767L141.054 26.9501C139.086 25.7537 136.841 25.1169 134.547 25.1169V31.1169ZM131.157 32.0767C132.198 31.4433 133.367 31.1169 134.547 31.1169V25.1169C132.252 25.1169 130.007 25.7537 128.039 26.9501L131.157 32.0767ZM128.606 34.7709C129.229 33.6348 130.114 32.7109 131.157 32.0767L128.039 26.9501C126.073 28.1457 124.459 29.8536 123.345 31.8868L128.606 34.7709ZM121.048 25.7434C122.307 28.0403 122.976 30.657 122.976 33.3288L128.976 33.3288C128.976 29.6621 128.06 26.0518 126.31 22.8593L121.048 25.7434ZM115.846 20.2562C117.99 21.5601 119.79 23.4473 121.048 25.7434L126.31 22.8593C124.559 19.6661 122.031 16.9949 118.963 15.1296L115.846 20.2562ZM113.761 25.7434C115.019 23.4474 116.819 21.5601 118.963 20.2561L115.846 15.1296C112.778 16.995 110.25 19.6661 108.499 22.8594L113.761 25.7434ZM111.834 33.3288C111.834 30.657 112.502 28.0404 113.761 25.7434L108.499 22.8594C106.749 26.0519 105.834 29.6621 105.834 33.3289L111.834 33.3288ZM103.652 32.0765C104.695 32.7107 105.58 33.6347 106.203 34.7708L111.464 31.8869C110.35 29.8536 108.736 28.1456 106.77 26.95L103.652 32.0765ZM100.262 31.1166C101.442 31.1166 102.611 31.4431 103.652 32.0765L106.77 26.95C104.802 25.7535 102.557 25.1166 100.262 25.1166V31.1166ZM96.8727 32.0765C97.9142 31.4431 99.0828 31.1166 100.262 31.1166V25.1166C97.9676 25.1166 95.7227 25.7535 93.7552 26.95L96.8727 32.0765ZM94.3221 34.7708C94.9448 33.6347 95.8298 32.7107 96.8727 32.0765L93.7552 26.95C91.789 28.1456 90.1752 29.8536 89.0607 31.8869L94.3221 34.7708ZM111.342 90.3374C109.945 69.7984 104.145 49.8069 94.3221 31.8868L89.0607 34.7709C98.4592 51.9165 104.017 71.0611 105.356 90.7444L111.342 90.3374ZM52.4707 75.5597C69.5168 85.9253 88.5514 92.0559 108.123 93.5324L108.574 87.5494C89.9576 86.145 71.835 80.3128 55.5882 70.4331L52.4707 75.5597ZM53.0376 78.2539C53.6604 77.1178 54.5453 76.1939 55.5882 75.5597L52.4707 70.4331C50.5046 71.6287 48.8908 73.3366 47.7763 75.3698L53.0376 78.2539ZM52.081 82.0238C52.081 80.6915 52.4145 79.3907 53.0376 78.2539L47.7763 75.3698C46.6622 77.4022 46.081 79.6966 46.081 82.0238H52.081ZM53.0376 85.7938C52.4145 84.6569 52.081 83.3562 52.081 82.0238H46.081C46.081 84.3511 46.6622 86.6454 47.7763 88.6778L53.0376 85.7938ZM55.5882 88.488C54.5453 87.8538 53.6604 86.9298 53.0376 85.7938L47.7763 88.6778C48.8908 90.7111 50.5046 92.4189 52.4707 93.6145L55.5882 88.488ZM47.0172 96.0335C49.1601 94.7304 51.578 94.0513 54.0295 94.0512L54.0294 88.0512C50.4628 88.0513 46.9686 89.0407 43.8997 90.9069L47.0172 96.0335ZM41.8148 101.521C43.0734 99.2247 44.8729 97.3374 47.0172 96.0335L43.8997 90.9069C40.8322 92.7723 38.3038 95.4435 36.5534 98.6368L41.8148 101.521ZM47.0172 104.124C44.8729 102.82 43.0734 100.933 41.8148 98.6368L36.5534 101.521C38.3038 104.714 40.8323 107.385 43.8998 109.251L47.0172 104.124ZM54.0294 106.106C51.578 106.106 49.1601 105.427 47.0172 104.124L43.8998 109.251C46.9687 111.117 50.4629 112.106 54.0295 112.106L54.0294 106.106ZM53.0374 114.364C53.6602 113.228 54.5452 112.304 55.5881 111.669L52.4708 106.543C50.5046 107.738 48.8907 109.446 47.7761 111.479L53.0374 114.364ZM52.0808 118.134C52.0808 116.801 52.4142 115.5 53.0374 114.364L47.7761 111.479C46.662 113.512 46.0808 115.806 46.0808 118.134H52.0808ZM53.0374 121.904C52.4142 120.767 52.0808 119.466 52.0808 118.134H46.0808C46.0808 120.461 46.662 122.755 47.7761 124.788L53.0374 121.904ZM55.5881 124.598C54.5452 123.964 53.6602 123.04 53.0374 121.904L47.7761 124.788C48.8907 126.821 50.5046 128.529 52.4708 129.725L55.5881 124.598ZM108.123 106.625C88.5514 108.102 69.5168 114.232 52.4707 124.598L55.5882 129.724C71.835 119.845 89.9576 114.013 108.574 112.608L108.123 106.625ZM94.3221 168.271C104.145 150.351 109.945 130.359 111.342 109.82L105.356 109.413C104.017 129.097 98.4592 148.241 89.0607 165.387L94.3221 168.271ZM96.8727 168.081C95.8298 167.447 94.9448 166.523 94.3221 165.387L89.0607 168.271C90.1752 170.304 91.789 172.012 93.7552 173.208L96.8727 168.081ZM100.262 169.041C99.0828 169.041 97.9142 168.715 96.8727 168.081L93.7552 173.208C95.7227 174.404 97.9676 175.041 100.262 175.041V169.041ZM103.652 168.081C102.611 168.715 101.442 169.041 100.262 169.041V175.041C102.557 175.041 104.802 174.404 106.77 173.208L103.652 168.081ZM106.203 165.387C105.58 166.523 104.695 167.447 103.652 168.081L106.77 173.208C108.736 172.012 110.35 170.304 111.464 168.271L106.203 165.387ZM113.761 174.414C112.502 172.117 111.834 169.501 111.834 166.829L105.834 166.829C105.834 170.496 106.75 174.106 108.499 177.298L113.761 174.414ZM118.963 179.901C116.819 178.597 115.019 176.71 113.761 174.414L108.499 177.298C110.25 180.491 112.778 183.163 115.846 185.028L118.963 179.901ZM121.048 174.414C119.79 176.71 117.99 178.597 115.846 179.901L118.963 185.028C122.031 183.163 124.559 180.492 126.31 177.298L121.048 174.414ZM122.976 166.829C122.976 169.501 122.307 172.117 121.048 174.414L126.31 177.298C128.06 174.106 128.976 170.496 128.976 166.829L122.976 166.829ZM131.157 168.081C130.114 167.447 129.229 166.523 128.606 165.387L123.345 168.271C124.459 170.304 126.073 172.012 128.039 173.208L131.157 168.081ZM134.547 169.041C133.367 169.041 132.198 168.714 131.157 168.081L128.039 173.208C130.007 174.404 132.252 175.041 134.547 175.041V169.041ZM137.936 168.081C136.895 168.714 135.726 169.041 134.547 169.041V175.041C136.841 175.041 139.086 174.404 141.054 173.208L137.936 168.081ZM140.487 165.387C139.864 166.523 138.979 167.447 137.936 168.081L141.054 173.208C143.02 172.012 144.634 170.304 145.748 168.271L140.487 165.387ZM123.467 109.82C124.864 130.359 130.664 150.351 140.487 168.271L145.748 165.387C136.35 148.241 130.792 129.097 129.453 109.413L123.467 109.82ZM182.338 124.598C165.292 114.232 146.258 108.102 126.686 106.625L126.234 112.608C144.851 114.013 162.974 119.845 179.221 129.724L182.338 124.598ZM181.771 121.904C181.149 123.04 180.264 123.964 179.221 124.598L182.338 129.725C184.304 128.529 185.918 126.821 187.033 124.788L181.771 121.904ZM182.728 118.134C182.728 119.466 182.395 120.767 181.771 121.904L187.033 124.788C188.147 122.755 188.728 120.461 188.728 118.134H182.728ZM181.771 114.364C182.395 115.5 182.728 116.801 182.728 118.134H188.728C188.728 115.806 188.147 113.512 187.033 111.479L181.771 114.364ZM179.221 111.669C180.264 112.304 181.149 113.228 181.771 114.364L187.033 111.479C185.918 109.446 184.304 107.738 182.338 106.543L179.221 111.669ZM187.792 104.124C185.649 105.427 183.231 106.106 180.779 106.106L180.779 112.106C184.346 112.106 187.84 111.117 190.909 109.251L187.792 104.124ZM192.994 98.6367C191.735 100.933 189.936 102.82 187.792 104.124L190.909 109.251C193.977 107.385 196.505 104.714 198.255 101.521L192.994 98.6367ZM187.792 96.0335C189.936 97.3374 191.735 99.2247 192.994 101.521L198.255 98.6368C196.505 95.4435 193.977 92.7724 190.909 90.907L187.792 96.0335ZM180.779 94.0512C183.231 94.0513 185.649 94.7304 187.792 96.0335L190.909 90.907C187.84 89.0407 184.346 88.0513 180.78 88.0512L180.779 94.0512ZM181.771 85.7938C181.149 86.9298 180.264 87.8538 179.221 88.488L182.338 93.6145C184.304 92.4189 185.918 90.7111 187.033 88.6779L181.771 85.7938ZM182.728 82.0238C182.728 83.3562 182.394 84.6569 181.771 85.7938L187.033 88.6778C188.147 86.6454 188.728 84.3511 188.728 82.0238H182.728ZM181.771 78.2539C182.394 79.3907 182.728 80.6915 182.728 82.0238H188.728C188.728 79.6966 188.147 77.4022 187.033 75.3698L181.771 78.2539ZM179.221 75.5597C180.264 76.1939 181.149 77.1178 181.771 78.2539L187.033 75.3698C185.918 73.3366 184.304 71.6288 182.338 70.4331L179.221 75.5597ZM126.686 93.5324C146.258 92.0559 165.292 85.9253 182.338 75.5597L179.221 70.4331C162.974 80.3128 144.851 86.145 126.234 87.5494L126.686 93.5324Z" fill="black" mask="url(#path-3-inside-1_36_17)"/>
<path fill-rule="evenodd" clip-rule="evenodd" d="M249.264 310.307C252.66 312.56 255.75 314.893 258.929 316.874C270.08 323.822 281.716 330.235 292.218 338.151C294.697 340.019 297.611 341.537 299.735 343.404C320.509 361.667 338.072 382.64 356.905 402.756C356.908 402.76 356.912 402.764 356.916 402.769C358.281 404.223 359.957 405.391 361.212 406.709C364.257 409.908 366.771 413.83 369.802 417.216C376.395 424.58 381.874 432.919 391.279 437.704C394.14 441.272 398.341 443.413 402.017 446.11C409.187 451.369 416.105 457.588 424.031 462.396C425.919 463.541 428.186 464.643 429.937 466.073C434.512 469.809 440.126 473.826 441.749 480.52C437.38 482.656 431.254 480.341 426.984 479.207C420.259 477.42 414.338 474.588 407.524 473.416C408.986 476.358 422.205 496.971 424.674 496.624C421.08 497.129 418.512 495.68 415.414 493.902C411.538 491.676 408.107 489.428 404.165 487.087C401.158 485.302 398.324 482.811 395.312 480.787C384.562 473.563 370.403 464.85 361.598 455.42C345.811 438.499 324.76 427.862 297.634 430.672C297.543 430.754 297.457 430.839 297.374 430.929C298.44 442.608 326.957 507.743 290.273 492.839C288.967 492.308 287.534 492.286 286.577 491.814C275.378 486.292 265.015 479.03 255.68 470.855C255.678 470.853 255.676 470.852 255.667 470.844C245.158 461.634 234.804 452.144 226.58 440.837C223.216 436.21 220.634 431.783 216.244 427.985C211.212 423.632 207.06 421.237 201.49 416.175C201.487 416.172 201.483 416.169 201.48 416.166C183.828 400.126 173.209 385.009 166.848 362.317C165.6 357.867 164.822 353.199 163.626 348.395C160.633 336.369 158.854 324.531 160.405 311.358C161.126 305.229 164.281 300.504 163.626 293.234C162.389 285.371 163.505 276.917 165.543 269.973C166.139 268.015 167.448 265.484 168.496 263.406C170.962 258.519 172.709 256.896 176.282 253.687C185.02 245.839 195.954 242.43 211.181 241.079H213.329C220.184 242.015 225.485 243.88 230.779 246.595C232.314 247.383 233.853 248.204 235.342 248.959C236.928 249.763 238.262 250.949 239.638 251.586C240.961 252.199 242.116 252.127 243.128 252.637C246.922 254.548 247.797 257.847 250.108 261.567V265.508C248.643 267.128 247.611 264.703 245.812 264.72C244.588 264.731 242.909 265.891 241.785 266.296C240.507 266.756 238.827 267.02 237.759 267.872C235.562 269.622 232.75 277.26 232.389 281.268C232.064 296.576 237.163 302.139 249.264 310.307Z" fill="#E01B24" stroke="black" stroke-width="3"/>
<path fill-rule="evenodd" clip-rule="evenodd" d="M225.712 506C225.712 505.474 225.712 504.949 225.712 504.424C227.14 503.019 226.673 499.761 228.933 499.17C230.191 499.912 231.759 501.846 231.886 503.636C232.186 507.862 230.598 509.55 233.769 513.363C227.13 514.791 229.401 509.874 225.712 506Z" fill="#F6D32D" stroke="black" stroke-width="3"/>
<path fill-rule="evenodd" clip-rule="evenodd" d="M287.726 511.516C287.726 512.479 287.726 513.442 287.726 514.405C286.356 518.602 285.095 524.238 279.672 523.599C278.916 521.996 280.877 520.195 281.283 517.82C281.538 516.324 281 514.816 281.551 513.617C282.469 511.62 285.065 511.043 287.726 511.516Z" fill="#F6D32D" stroke="black" stroke-width="3"/>
<path fill-rule="evenodd" clip-rule="evenodd" d="M248.262 527.802C247.25 531.364 245.038 533.753 244.235 537.521C241.13 536.715 243.849 527.124 245.309 526.488C245.95 526.209 246.818 526.721 247.188 526.488C247.502 526.97 247.89 527.378 248.262 527.802Z" fill="#F6D32D" stroke="black" stroke-width="3"/>
<path fill-rule="evenodd" clip-rule="evenodd" d="M238.866 534.369C235.808 539.467 227.408 534.685 227.054 529.903C232.833 527.586 235.578 532.523 238.866 534.369Z" fill="#F6D32D" stroke="black" stroke-width="3"/>
<path fill-rule="evenodd" clip-rule="evenodd" d="M286.946 507.64C287.841 509.204 287.772 511.044 286.844 512.542C284.8 513.436 282.956 513.857 280.63 514.959C279.107 512.224 276 506.437 272.495 506.007C272.471 506.004 272.447 506.002 272.423 505.999C270.693 505.831 269.466 507.835 268.128 508.101C267.182 508.289 265.614 507.737 264.37 508.101C262.91 508.528 262.795 509.885 261.149 511.516C258.949 513.694 254.642 514.621 253.632 515.981C251.306 519.113 253.317 525.946 248.799 526.751C247.479 526.986 246.238 526.157 245.041 525.437C245.381 520.225 249.638 516.755 247.032 512.01C243.631 513.571 236.98 516.306 234.447 519.71C231.089 524.224 237.965 528.646 229.8 529.724C229.79 529.727 229.779 529.727 229.769 529.728C214.454 531.733 235.018 510.258 238.598 507.05C239.788 505.984 241.05 504.862 242.088 503.636C239.918 503.442 237.693 505.462 234.034 504.686C232.206 503.18 229.149 500.698 229.471 497.857C229.974 493.408 239.486 493.696 246.384 494.179C249.531 494.4 253.929 495.786 256.585 495.23C260.417 494.428 263.406 487.461 263.833 484.986C264.29 482.338 263.138 478.588 262.706 476.12C266.458 475.569 270.434 477.532 272.728 480.88C277.579 487.971 271.566 487.248 272.157 493.927C272.157 493.932 272.157 493.936 272.158 493.941C272.158 493.945 272.159 493.949 272.159 493.953C272.159 493.957 272.16 493.96 272.16 493.963C272.865 501.123 283.895 502.315 286.946 507.64Z" fill="#F6D32D" stroke="black" stroke-width="3"/>
<path fill-rule="evenodd" clip-rule="evenodd" d="M281.251 430.894C278.87 428.434 276.871 425.643 275.96 421.716C287.935 425.371 299.337 429.714 311.087 433.906C334.989 442.433 352.426 439.523 366.131 462.197C372.168 472.184 380.984 482.43 386.161 492.932C393.658 508.139 400.615 523.024 408.532 538.046C410.526 541.828 413.474 546.028 415.781 550.391C416.742 552.211 417.522 554.478 418.734 557.221C419.103 558.058 423.401 569.031 419.649 569.077C415.191 569.132 411.33 567.75 407.476 565.636C407.47 565.633 407.464 565.63 407.458 565.627C404.901 564.223 402.258 562.535 400.226 561.172C400.218 561.166 400.21 561.161 400.202 561.156C383.172 549.718 375.885 532.21 366.115 515.192C364.376 512.163 361.979 509.692 360.21 506.788C358.659 504.241 357.755 501.453 356.183 498.907C349.817 488.599 341.973 480.904 332.558 473.165C330.168 471.2 328.419 468.686 326.115 467.124C319.202 462.434 310.487 461.346 304.102 456.617C302.332 455.306 296.168 449.441 294.706 447.423C293.455 445.697 292.776 443.31 291.484 441.382C291.477 441.37 291.469 441.359 291.462 441.348C288.58 437.073 284.55 434.301 281.251 430.894Z" fill="#E01B24" stroke="black" stroke-width="3"/>
<path fill-rule="evenodd" clip-rule="evenodd" d="M192.407 319.754C199.765 316.75 210.513 318.46 220.327 322.384C220.331 322.386 220.334 322.387 220.343 322.391C224.559 324.079 227.568 327.559 231.618 328.169C250.31 330.986 248.188 313.31 270.649 323.483C281.47 328.385 292.85 337.201 301.417 345.243C336.478 378.156 364.612 415.422 402.348 446.102C402.351 446.105 402.354 446.107 402.358 446.11C405.915 448.727 409.451 451.657 413.096 454.515C422.315 461.744 432.038 466.096 439.42 475.549C440.8 477.315 443.219 479.792 441.016 481.833C440.3 481.833 439.584 481.833 438.868 481.833C436.472 481.404 433.485 480.695 430.814 479.995C422.745 477.88 415.865 475.381 408.531 472.64C391.08 466.117 373.134 460.669 355.914 453.728C348.612 450.784 340.954 446.927 333.364 444.797C329.872 443.817 326.125 443.403 322.625 442.433C315.336 440.41 308.943 438.015 302.488 435.865C302.485 435.864 302.482 435.863 302.478 435.861C273.045 425.966 242.873 416.171 217.688 398.325C217.685 398.322 217.681 398.32 217.677 398.317C207.624 391.057 182.98 370.862 183.027 356.801C183.036 354.252 185.241 351.284 185.443 348.133C185.65 344.89 184.224 343.092 183.832 340.515C182.046 328.755 185.901 322.411 192.407 319.754Z" fill="#E01B24" stroke="black" stroke-width="3"/>
<path d="M206.114 381.755C214.963 390.147 231.824 396.665 243.649 399.292C251.71 401.083 280.618 404.913 284.884 396.496C288.172 390.01 280.043 381.607 275.377 378.077" fill="#E01B24"/>
<path d="M206.114 381.755C214.963 390.147 231.824 396.665 243.649 399.292C251.71 401.083 280.618 404.913 284.884 396.496C288.172 390.01 280.043 381.607 275.377 378.077" stroke="black" stroke-width="3"/>
<path d="M224.369 376.764C225.531 381.682 226.726 390.79 219 390.16L224.369 376.764Z" fill="#E01B24"/>
<path d="M224.369 376.764C225.531 381.682 226.726 390.79 219 390.16" stroke="black" stroke-width="3"/>
<path d="M244.504 383.593C248.22 390.67 244.381 399.951 235.108 396.727L244.504 383.593Z" fill="#E01B24"/>
<path d="M244.504 383.593C248.22 390.67 244.381 399.951 235.108 396.727" stroke="black" stroke-width="3"/>
<path d="M260.611 387.533C266.331 392.519 265.841 402.986 256.048 400.93L260.611 387.533Z" fill="#E01B24"/>
<path d="M260.611 387.533C266.331 392.519 265.841 402.986 256.048 400.93" stroke="black" stroke-width="3"/>
<path d="M281.014 399.616C288.117 408.958 295.941 415.448 307.425 419.017C319.294 422.705 333.139 423.992 333.706 408.601C333.729 407.979 333.713 407.321 333.66 406.638C333.364 402.243 332.29 397.515 329.339 393.766" fill="#E01B24"/>
<path d="M281.014 399.616C288.117 408.958 295.941 415.448 307.425 419.017C319.294 422.705 333.139 423.992 333.706 408.601C333.729 407.979 333.713 407.321 333.66 406.638C333.364 402.243 332.29 397.515 329.339 393.766" stroke="black" stroke-width="3"/>
<path d="M300.075 404.082C308.664 410.985 318.247 420.257 330.411 418.004L300.075 404.082Z" fill="#E01B24"/>
<path d="M300.075 404.082C308.664 410.985 318.247 420.257 330.411 418.004" stroke="black" stroke-width="3"/>
<path d="M300.88 393.838C308.612 399.146 315.004 405.681 324.888 408.21C327.377 408.847 330.672 409.234 333.095 409.073" fill="#E01B24"/>
<path d="M300.88 393.838C308.612 399.146 315.004 405.681 324.888 408.21C327.377 408.847 330.672 409.234 333.095 409.073" stroke="black" stroke-width="3"/>
<path d="M331.484 415.64C337.717 421.777 350.092 425.758 358.444 427.694C373.643 431.217 370.627 427.257 369.605 415.902" fill="#E01B24"/>
<path d="M331.484 415.64C337.717 421.777 350.092 425.758 358.444 427.694C373.643 431.217 370.627 427.257 369.605 415.902" stroke="black" stroke-width="3"/>
<path d="M243.967 340.777C259.694 351.197 274.527 364.473 291.286 373.199C301.404 378.467 322.034 383.51 313.657 366.143C311.257 361.166 306.369 356.023 303.296 351.284" fill="#E01B24"/>
<path d="M243.967 340.777C259.694 351.197 274.527 364.473 291.286 373.199C301.404 378.467 322.034 383.51 313.657 366.143C311.257 361.166 306.369 356.023 303.296 351.284" stroke="black" stroke-width="3"/>
<path d="M334.975 384.907C341.631 390.315 337.223 392.859 330.673 393.54C316.201 395.046 298.202 380.165 287.726 371.51" fill="#E01B24"/>
<path d="M334.975 384.907C341.631 390.315 337.223 392.859 330.673 393.54C316.201 395.046 298.202 380.165 287.726 371.51" stroke="black" stroke-width="3"/>
<path d="M190.007 348.132C197.473 358.16 207.051 368.836 219.236 373.246C228.055 376.437 247.282 382.291 249.738 370.501C250.83 365.254 245.753 357.393 243.43 352.86" fill="#E01B24"/>
<path d="M190.007 348.132C197.473 358.16 207.051 368.836 219.236 373.246C228.055 376.437 247.282 382.291 249.738 370.501C250.83 365.254 245.753 357.393 243.43 352.86" stroke="black" stroke-width="3"/>
<path d="M212.826 351.81C213.563 358.926 210.353 367.426 202.088 362.054L212.826 351.81Z" fill="#E01B24"/>
<path d="M212.826 351.81C213.563 358.926 210.353 367.426 202.088 362.054" stroke="black" stroke-width="3"/>
<path d="M226.517 360.215C228.707 367.661 224.61 374.773 215.779 372.036L226.517 360.215Z" fill="#E01B24"/>
<path d="M226.517 360.215C228.707 367.661 224.61 374.773 215.779 372.036" stroke="black" stroke-width="3"/>
<path d="M237.793 366.257C242.013 372.678 234.687 377.089 228.665 375.976L237.793 366.257Z" fill="#E01B24"/>
<path d="M237.793 366.257C242.013 372.678 234.687 377.089 228.665 375.976" stroke="black" stroke-width="3"/>
<path d="M277.256 343.404C284.116 351.15 284.668 367.246 270.813 359.953L277.256 343.404Z" fill="#E01B24"/>
<path d="M277.256 343.404C284.116 351.15 284.668 367.246 270.813 359.953" stroke="black" stroke-width="3"/>
<path d="M286.115 369.934C300.081 377.384 295.418 360.626 291.484 354.699L286.115 369.934Z" fill="#E01B24"/>
<path d="M286.115 369.934C300.081 377.384 295.418 360.626 291.484 354.699" stroke="black" stroke-width="3"/>
<path fill-rule="evenodd" clip-rule="evenodd" d="M250.179 265.77C250.179 264.369 250.179 262.968 250.179 261.567C248.858 260.096 248.612 258.123 247.763 256.839C245.111 252.826 240.588 251.712 236.488 249.747C234.839 251.023 233.693 252.791 233.535 255.526C232.702 256.55 230.846 256.573 230.045 257.627C230.262 259.779 229.369 263.017 231.119 263.669C235.431 262.824 236.623 266.496 239.173 266.821C241.556 267.125 243.908 264.48 246.421 264.719C248.154 264.885 248.915 267.336 250.179 265.77Z" fill="#F6D32D" stroke="black" stroke-width="3"/>
<path d="M194.498 262.093C199.652 257.154 206.483 248.32 213.995 248.711C219.571 249.004 224.272 253.58 225.125 259.392C220.731 257.299 221.02 260.609 217.058 262.583C211.851 265.178 209.672 260.359 205.1 260.132C200.864 259.921 198.383 262.065 194.253 262.355" fill="#F6D32D"/>
<path d="M194.498 262.093C199.652 257.154 206.483 248.32 213.995 248.711C219.571 249.004 224.272 253.58 225.125 259.392C220.731 257.299 221.02 260.609 217.058 262.583C211.851 265.178 209.672 260.359 205.1 260.132C200.864 259.921 198.383 262.065 194.253 262.355" stroke="black" stroke-width="2"/>
<path fill-rule="evenodd" clip-rule="evenodd" d="M214.474 251.323H211.253C206.232 252.211 207.65 260.692 212.327 260.779H214.474C216.343 260.069 218.097 259.246 218.77 257.365V256.051C217.652 254.168 217.016 251.813 214.474 251.323ZM217.427 255C217.714 256.101 216.551 257.691 215.548 255.526C215.528 254.215 217.002 253.914 217.427 255Z" fill="black"/>
<path fill-rule="evenodd" clip-rule="evenodd" d="M300.905 658.579C300.905 658.579 2.40454 546.259 2.40454 260.807C2.40454 -24.6445 2.40454 2.25536 2.40454 2.25536H599.405V260.807C599.405 546.259 300.905 658.579 300.905 658.579Z" stroke="black" stroke-width="3"/>
</g>
<defs>
<clipPath id="clip0_36_17">
<rect width="600" height="660" fill="white" transform="translate(0.904541 0.0788574)"/>
</clipPath>
</defs>
</svg>
