<svg width="601" height="661" viewBox="0 0 601 661" fill="none" xmlns="http://www.w3.org/2000/svg">
<mask id="path-1-inside-1_41_2152" fill="white">
<path fill-rule="evenodd" clip-rule="evenodd" d="M2 269.636C8.05266 538.476 278.69 650.285 299.172 658.365H300V2.36548H2V269.636Z"/>
</mask>
<path fill-rule="evenodd" clip-rule="evenodd" d="M2 269.636C8.05266 538.476 278.69 650.285 299.172 658.365H300V2.36548H2V269.636Z" fill="#F6D32D"/>
<path d="M299.172 658.365L298.622 659.761L298.887 659.865H299.172V658.365ZM2 269.636H0.5V269.653L0.50038 269.669L2 269.636ZM300 658.365V659.865H301.5V658.365H300ZM300 2.36548H301.5V0.865479H300V2.36548ZM2 2.36548V0.865479H0.5V2.36548H2ZM299.723 656.97C289.559 652.96 216.959 623.065 146.167 560.66C75.3885 498.267 6.51352 403.47 3.49962 269.602L0.50038 269.669C3.53914 404.642 73.009 500.169 144.183 562.911C215.344 625.641 288.303 655.69 298.622 659.761L299.723 656.97ZM300 656.865H299.172V659.865H300V656.865ZM298.5 2.36548V658.365H301.5V2.36548H298.5ZM2 3.86548H300V0.865479H2V3.86548ZM3.5 269.636V2.36548H0.5V269.636H3.5Z" fill="black" mask="url(#path-1-inside-1_41_2152)"/>
<mask id="path-3-inside-2_41_2152" fill="white">
<path fill-rule="evenodd" clip-rule="evenodd" d="M598.897 1.95068H1.89691V260.451C1.89691 263.533 1.93152 266.594 2 269.636V2.36548H300V658.365H299.172C299.978 658.683 300.397 658.841 300.397 658.841C300.397 658.841 598.897 546.651 598.897 260.451V1.95068Z"/>
</mask>
<path fill-rule="evenodd" clip-rule="evenodd" d="M598.897 1.95068H1.89691V260.451C1.89691 263.533 1.93152 266.594 2 269.636V2.36548H300V658.365H299.172C299.978 658.683 300.397 658.841 300.397 658.841C300.397 658.841 598.897 546.651 598.897 260.451V1.95068Z" fill="#E01B24"/>
<path d="M1.89691 1.95068V0.450684H0.396912V1.95068H1.89691ZM598.897 1.95068H600.397V0.450684H598.897V1.95068ZM2 269.636L0.50038 269.669L3.5 269.636H2ZM2 2.36548V0.865479H0.5V2.36548H2ZM300 2.36548H301.5V0.865479H300V2.36548ZM300 658.365V659.865H301.5V658.365H300ZM299.172 658.365V656.865L298.622 659.761L299.172 658.365ZM300.397 658.841L299.869 660.245L300.397 660.443L300.925 660.245L300.397 658.841ZM1.89691 3.45068H598.897V0.450684H1.89691V3.45068ZM3.39691 260.451V1.95068H0.396912V260.451H3.39691ZM3.49962 269.602C3.4314 266.572 3.39691 263.521 3.39691 260.451H0.396912C0.396912 263.544 0.431649 266.617 0.50038 269.669L3.49962 269.602ZM3.5 269.636V2.36548H0.5V269.636H3.5ZM2 3.86548H300V0.865479H2V3.86548ZM298.5 2.36548V658.365H301.5V2.36548H298.5ZM300 656.865H299.172V659.865H300V656.865ZM300.397 658.841C300.925 657.437 300.925 657.437 300.925 657.437C300.925 657.437 300.925 657.437 300.925 657.437C300.925 657.437 300.925 657.437 300.925 657.437C300.925 657.437 300.925 657.437 300.925 657.437C300.925 657.437 300.924 657.437 300.924 657.436C300.924 657.436 300.923 657.436 300.921 657.435C300.918 657.434 300.914 657.433 300.908 657.43C300.896 657.426 300.877 657.419 300.852 657.409C300.802 657.39 300.727 657.361 300.626 657.323C300.424 657.245 300.122 657.128 299.723 656.97L298.622 659.761C299.029 659.921 299.339 660.042 299.548 660.122C299.653 660.162 299.732 660.193 299.786 660.213C299.812 660.223 299.833 660.231 299.847 660.236C299.854 660.239 299.859 660.241 299.863 660.242C299.865 660.243 299.866 660.244 299.867 660.244C299.868 660.244 299.868 660.245 299.869 660.245C299.869 660.245 299.869 660.245 299.869 660.245C299.869 660.245 299.869 660.245 299.869 660.245H299.869C299.869 660.245 299.869 660.245 300.397 658.841ZM597.397 260.451C597.397 402.966 523.094 502.182 448.672 565.831C411.461 597.655 374.245 620.564 346.329 635.517C332.373 642.992 320.747 648.477 312.614 652.09C308.548 653.897 305.356 655.236 303.183 656.122C302.096 656.565 301.265 656.895 300.707 657.113C300.427 657.223 300.217 657.304 300.076 657.358C300.006 657.385 299.954 657.405 299.919 657.418C299.902 657.424 299.889 657.429 299.88 657.432C299.876 657.434 299.874 657.435 299.871 657.436C299.87 657.436 299.869 657.437 300.397 658.841C300.925 660.245 300.926 660.244 300.929 660.243C300.932 660.242 300.936 660.241 300.941 660.239C300.95 660.235 300.965 660.23 300.984 660.223C301.021 660.208 301.077 660.187 301.15 660.159C301.297 660.103 301.514 660.019 301.8 659.907C302.371 659.684 303.216 659.348 304.316 658.9C306.515 658.003 309.736 656.652 313.832 654.832C322.024 651.192 333.717 645.676 347.746 638.161C375.799 623.135 413.207 600.109 450.622 568.111C525.45 504.115 600.397 404.136 600.397 260.451H597.397ZM597.397 1.95068V260.451H600.397V1.95068H597.397Z" fill="black" mask="url(#path-3-inside-2_41_2152)"/>
<path d="M109.661 135.283C107.679 137.694 109.473 139.523 112.7 142.384C116.591 146.63 120.56 150.805 120.224 158.055C118.445 166.712 112.277 173.646 108.236 181.384C106.023 185.964 106.66 189.354 107.107 192.852C110.093 196.915 116.245 200.7 122.924 202.916C125.198 207.133 126.066 211.398 126.122 215.689C99.1459 260.85 112.867 290.005 134.586 316.858C132.232 337.883 115.435 355.273 120.742 361.761C123.812 365.514 135.582 372.184 135.426 375.133C135.01 383.009 126.838 376.957 120.809 383.057C116.401 383.336 114.312 383.639 114.415 387.1C116.271 390.201 118.316 387.872 121.456 386.16C123.704 384.995 126.489 385.203 129.267 385.987C126.683 390.808 125.317 393.791 124.332 399.1C122.617 401.718 119.879 403.463 122.726 405.463C126.237 406.285 126.322 403.97 126.583 400.501C128.157 397.954 131.77 388.037 135.59 387.469C137.738 391.813 133.028 401.391 136.925 405.498C138.671 408.608 138.194 409.732 141.057 409.944C144.662 407.729 141.6 406.189 139.44 403.597C139.131 398.506 141.63 390.99 142.977 387.035C148.267 384.621 147.927 391.83 152.198 393.636C154.4 397.195 157.745 397.583 158.944 396.024C160.233 394.349 157.86 391.627 154.696 390.365C150.258 379.199 150.026 380.113 148.464 373.048C146.622 364.722 138.455 362.781 135.708 356.829C144.17 345.359 147.421 344.402 153.241 343.936C157.736 343.577 161.453 349.363 179.1 362.921C255.028 421.251 99.0254 531.212 77.2801 397.382L74.4691 400.094C76.3996 545.306 297.954 451.201 196.195 346.344C187.47 337.355 184.322 329.836 183.029 320.399C183.903 314.158 184.885 305.983 191.986 294.063C197.361 297.814 197.891 306.201 205.763 309.478C212.443 312.26 211.446 312.322 221.658 318.655C223.143 322.811 224.234 325.32 226.109 324.398C228.54 321.611 227.573 320.977 225.317 316.773C224.291 312.25 217.135 311.316 220.441 306.533C224.572 305.903 232.41 304.766 237.368 305.966C239.874 308.826 241.086 310.758 242.818 308.955C244.527 306.19 241.993 305.22 239.737 303.829C234.752 299.666 227.983 301.532 222.169 299.338C223.4 295.678 233.798 293.866 236.583 292.764C241.132 293.31 243.356 292.404 243.63 289.571C243.335 286.318 238.563 288.7 235.63 290.277C230.23 290.312 227.078 291.162 221.877 292.858C221.375 289.017 221.582 287.472 223.579 285.325C226.303 281.478 227.663 280.884 225.314 277.959C223.14 276.447 221.965 279.53 220.427 284.012C213.361 288.873 214.646 294.119 206.82 293.143C203.89 292.778 197.772 275.626 194.618 271.944C189.329 265.77 181.764 283.568 166.727 286.822C153.952 255.254 161.675 248.93 166.592 235.399C168.015 235.31 169.615 235.175 171.59 234.809C177.506 238.618 184.236 246.102 189.273 245.876C192.277 244.029 195.303 242.371 197.48 237.775C200.969 229.773 202.501 220.641 208.125 213.823C213.56 209.012 219.302 209.455 225.049 209.82C228.872 211.571 233.124 209.16 232.668 207.814C232.261 206.61 228.038 204.029 224.516 205.749C219.915 205.166 215.736 205.744 211.526 204.458C212.347 200.36 216.97 196.905 220.235 193.215C225.258 189.474 227.801 190.919 226.409 187.449C223.928 185.361 219.953 187.486 219.044 190.26C214.949 194.018 210.909 197.819 206.53 201.248C204.859 197.484 205.399 194.358 205.419 191.091C207.436 186.07 207.815 183.011 203.346 183.858C201.431 186.016 202.992 185.311 202.758 191.163C201.862 195.09 201.34 199.045 199.65 202.902L194.395 196.624C192.637 193.474 190.965 191.174 187.667 192.046C185.194 195.1 188.903 197.269 192.077 199.129C193.873 203.388 198.894 205.691 195.092 213.338C196.84 218.044 191.761 223.924 186.691 228.995C177.906 224.507 173.914 210.94 168.097 200.467C168 199.902 167.909 199.346 167.801 198.764C166.031 185.466 177.93 184.574 185.491 181.082C202.76 173.104 198.246 158.374 197.608 145.889C197.139 136.689 189.226 134.068 183.063 136.301C170.392 140.893 151.052 141.221 154.456 162.404C153.36 172.572 149.558 180.783 144.843 188.263C136.717 188.165 129.353 187.643 121.864 184.297C122.631 177.168 124.032 169.516 128.792 167.924C132.361 160.165 137.281 162.633 141.724 161.359C145.413 163.48 148.055 163.349 149.194 160.042C148.577 156.535 145.286 158.252 142.257 158.193L134.046 157.828C135.988 154.092 138.736 151.177 141.231 148.015C143.976 147.283 145.993 144.793 145.926 143.777C145.843 142.518 143.548 142.408 139.629 145.917C137.098 147.983 134.988 150.379 131.009 151.44C130.768 146.364 131.47 140.377 131.728 134.823C133.748 130.459 131.732 127.218 129.599 125.574C126.532 127.962 127.566 130.057 128.66 135.696C127.837 140.554 128.04 146.332 125.365 149.542C121.722 147.072 119.584 143.456 116.243 140.239C114.267 135.493 112.93 133.881 109.661 135.283Z" fill="#E01B24" stroke="black" stroke-width="3"/>
<path d="M494.737 462.841C496.719 460.43 494.925 458.6 491.698 455.74C487.808 451.493 483.839 447.318 484.176 440.068C485.955 431.411 492.123 424.477 496.164 416.739C498.377 412.16 497.74 408.77 497.293 405.272C494.308 401.208 488.156 397.423 481.478 395.207C479.203 390.99 478.336 386.725 478.28 382.434C505.258 337.274 491.539 308.118 469.821 281.264C472.176 260.24 488.974 242.85 483.668 236.362C480.598 232.609 468.828 225.938 468.984 222.989C469.401 215.114 477.572 221.166 483.601 215.066C488.009 214.788 490.099 214.485 489.995 211.023C488.14 207.923 486.094 210.251 482.955 211.963C480.707 213.128 477.922 212.92 475.144 212.136C477.728 207.315 479.094 204.332 480.079 199.023C481.794 196.405 484.532 194.66 481.685 192.66C478.175 191.838 478.09 194.152 477.828 197.621C476.254 200.168 472.641 210.085 468.821 210.653C466.673 206.31 471.384 196.731 467.487 192.625C465.74 189.514 466.217 188.39 463.355 188.179C459.75 190.393 462.812 191.933 464.971 194.525C465.28 199.616 462.781 207.132 461.434 211.087C456.144 213.501 456.484 206.291 452.213 204.485C450.011 200.926 446.666 200.538 445.467 202.097C444.178 203.773 446.551 206.494 449.715 207.756C454.152 218.923 454.384 218.008 455.946 225.074C457.787 233.4 465.954 235.342 468.701 241.293C460.239 252.763 456.988 253.72 451.168 254.185C446.673 254.545 442.956 248.758 425.309 235.2C349.384 176.866 505.392 66.9124 527.131 200.743L529.942 198.031C528.019 52.8193 306.46 146.914 408.214 251.775C416.938 260.765 420.086 268.284 421.379 277.721C420.504 283.962 419.521 292.137 412.42 304.057C407.045 300.305 406.516 291.919 398.644 288.64C391.964 285.859 392.961 285.796 382.75 279.463C381.265 275.307 380.174 272.798 378.298 273.72C375.868 276.507 376.834 277.141 379.09 281.345C380.116 285.868 387.272 286.802 383.965 291.585C379.834 292.215 371.996 293.351 367.039 292.151C364.533 289.291 363.321 287.359 361.588 289.162C359.879 291.927 362.413 292.897 364.67 294.288C369.654 298.451 376.424 296.585 382.237 298.78C381.006 302.44 370.608 304.251 367.823 305.353C363.274 304.807 361.05 305.713 360.776 308.546C361.07 311.799 365.843 309.417 368.776 307.84C374.176 307.806 377.328 306.956 382.528 305.26C383.031 309.101 382.824 310.646 380.826 312.793C378.102 316.639 376.742 317.234 379.091 320.159C381.265 321.671 382.44 318.588 383.979 314.107C391.045 309.245 389.76 304 397.586 304.976C400.516 305.341 406.633 322.493 409.787 326.176C415.076 332.35 422.642 314.553 437.679 311.299C450.452 342.868 442.729 349.191 437.811 362.722C436.389 362.811 434.788 362.945 432.813 363.312C426.897 359.502 420.167 352.018 415.13 352.243C412.126 354.09 409.101 355.748 406.923 360.345C403.433 368.346 401.901 377.478 396.277 384.295C390.842 389.106 385.1 388.663 379.353 388.298C375.53 386.547 371.278 388.958 371.733 390.304C372.141 391.507 376.364 394.088 379.885 392.369C384.486 392.952 388.665 392.374 392.875 393.661C392.054 397.758 387.432 401.214 384.166 404.903C379.143 408.644 376.599 407.198 377.992 410.669C380.473 412.757 384.448 410.632 385.357 407.858C389.452 404.1 393.493 400.299 397.871 396.87C399.542 400.635 399.002 403.76 398.982 407.028C396.965 412.049 396.586 415.107 401.055 414.261C402.97 412.103 401.408 412.808 401.642 406.956C402.539 403.03 403.061 399.074 404.751 395.218L410.006 401.495C411.764 404.646 413.436 406.946 416.734 406.074C419.207 403.02 415.498 400.85 412.324 398.991C410.528 394.732 405.508 392.428 409.31 384.781C407.562 380.075 412.641 374.195 417.712 369.125C426.497 373.613 430.488 387.181 436.304 397.654C436.402 398.219 436.492 398.775 436.6 399.356C438.37 412.655 426.47 413.546 418.909 417.038C401.64 425.015 406.154 439.745 406.79 452.23C407.26 461.431 415.172 464.052 421.335 461.819C434.006 457.228 453.347 456.901 449.943 435.718C451.04 425.549 454.842 417.339 459.558 409.859C467.684 409.957 475.048 410.479 482.536 413.826C481.769 420.955 480.368 428.607 475.607 430.199C472.038 437.957 467.118 435.49 462.675 436.763C458.986 434.642 456.344 434.773 455.205 438.08C455.823 441.587 459.114 439.869 462.143 439.929L470.353 440.295C468.411 444.031 465.663 446.945 463.168 450.107C460.422 450.839 458.406 453.329 458.473 454.345C458.556 455.604 460.85 455.714 464.77 452.205C467.301 450.139 469.411 447.744 473.39 446.683C473.63 451.759 472.928 457.745 472.671 463.3C470.65 467.663 472.666 470.905 474.798 472.548C477.866 470.161 476.832 468.065 475.738 462.426C476.562 457.569 476.359 451.791 479.034 448.581C482.677 451.051 484.815 454.667 488.155 457.884C490.132 462.63 491.468 464.243 494.737 462.841Z" fill="#F6D32D" stroke="black" stroke-width="3"/>
<path d="M1.89691 1.95068H598.897V260.451C598.897 546.651 300.397 658.841 300.397 658.841C300.397 658.841 1.89691 546.651 1.89691 260.451V1.95068Z" stroke="black" stroke-width="3"/>
</svg>
