<svg width="600" height="660" viewBox="0 0 600 660" fill="none" xmlns="http://www.w3.org/2000/svg">
<path fill-rule="evenodd" clip-rule="evenodd" d="M300 658.213C300 658.213 598.5 545.893 598.5 260.441C598.5 -25.0104 598.5 1.88939 598.5 1.88939H1.5V260.441C1.5 545.893 300 658.213 300 658.213Z" fill="#26A269"/>
<path fill-rule="evenodd" clip-rule="evenodd" d="M48.0122 442.69C132.58 594.914 298.026 658.205 298.026 658.205C298.026 658.205 467.473 594.914 552.04 442.69H48.0122Z" fill="white" stroke="white" stroke-width="3.01186"/>
<path fill-rule="evenodd" clip-rule="evenodd" d="M313.912 261.841C308.18 259.461 286.756 290.43 291.394 299.889C296.901 311.12 308.822 321.982 318.209 324.966C320.319 330.657 314.266 333.37 311.454 338.534C297.823 354.514 297.817 356.962 294.405 364.606C293.025 367.697 292.918 374.196 290.677 376.764C287.758 381.653 288.431 386.902 291.937 389.083C295.132 383.738 304.315 384.887 305.102 384.642C303.524 380.021 308.597 376.837 312.224 375.813C314.471 370.799 308.253 367.877 310.523 363.982C314.746 356.585 331.225 347.139 335.624 339.854C344.168 333.536 343.819 330.579 346.424 326.028C349.686 320.771 339.279 312.936 343.45 308.299C348.665 302.501 359.373 295.476 367.294 281.335" fill="white"/>
<path d="M313.912 261.841C308.18 259.461 286.756 290.43 291.394 299.889C296.901 311.12 308.822 321.982 318.209 324.966C320.319 330.657 314.266 333.37 311.454 338.534C297.823 354.514 297.817 356.962 294.405 364.606C293.025 367.697 292.918 374.196 290.677 376.764C287.758 381.653 288.431 386.902 291.937 389.083C295.132 383.738 304.315 384.887 305.102 384.642C303.524 380.021 308.597 376.837 312.224 375.813C314.471 370.799 308.253 367.877 310.523 363.982C314.746 356.585 331.225 347.139 335.624 339.854C344.168 333.536 343.819 330.579 346.424 326.028C349.686 320.771 339.279 312.936 343.45 308.299C348.665 302.501 359.373 295.476 367.294 281.335" stroke="black" stroke-width="3"/>
<path fill-rule="evenodd" clip-rule="evenodd" d="M289.509 403.234C295.949 402.384 300.808 398.583 303.463 392.974C304.759 389.366 304.856 385.084 300.941 384.129C297.039 385.257 293.551 386.539 290.138 389.018C290.185 393.603 288.954 398.736 289.509 403.234Z" fill="#F6D32D" stroke="black" stroke-width="3"/>
<path fill-rule="evenodd" clip-rule="evenodd" d="M294.571 403.539C301.145 402.211 305.433 397.832 307.022 391.663C307.613 387.723 306.802 383.14 302.492 382.375C298.64 383.836 295.254 385.433 292.202 388.306C293.228 393.202 293.031 398.768 294.571 403.539Z" fill="#F6D32D" stroke="black" stroke-width="3"/>
<path fill-rule="evenodd" clip-rule="evenodd" d="M289.312 200.336C279.467 204.361 269.716 206.238 259.19 205.865C250.067 205.395 238.461 200.501 227.44 202.181C215.743 203.965 212.895 207.351 216.024 214.051C212.237 221.188 208.181 236.006 212.914 242.809C220.749 252.959 210.13 244.728 206.25 257.579C205.326 259.025 206.122 258.618 208.795 261.847C208.796 264.504 208.175 264.198 205.5 265.752C201.629 264.304 196.719 267.064 193.873 263.856C191.881 266.142 192.329 254.139 194.014 251.517C194.084 245.594 191.468 237.07 194.806 229.758C197.048 220.206 194.579 216.464 197.982 207.172C205.074 187.076 217.743 183.784 231.505 176.316C231.203 175.337 259.443 170.061 283.599 173.099" fill="white"/>
<path d="M289.312 200.336C279.467 204.361 269.716 206.238 259.19 205.865C250.067 205.395 238.461 200.501 227.44 202.181C215.743 203.965 212.895 207.351 216.024 214.051C212.237 221.188 208.181 236.006 212.914 242.809C220.749 252.959 210.13 244.728 206.25 257.579C205.326 259.025 206.122 258.618 208.795 261.847C208.796 264.504 208.175 264.198 205.5 265.752C201.629 264.304 196.719 267.064 193.873 263.856C191.881 266.142 192.329 254.139 194.014 251.517C194.084 245.594 191.468 237.07 194.806 229.758C197.048 220.206 194.579 216.464 197.982 207.172C205.074 187.076 217.743 183.784 231.505 176.316C231.203 175.337 259.443 170.061 283.599 173.099" stroke="black" stroke-width="3"/>
<path fill-rule="evenodd" clip-rule="evenodd" d="M193.001 278.378C199.366 277.079 203.951 272.948 206.212 267.168C207.257 263.479 207.058 259.202 203.087 258.524C199.273 259.923 195.882 261.446 192.648 264.158C193.011 268.726 192.138 273.931 193.001 278.378Z" fill="#F6D32D" stroke="black" stroke-width="3"/>
<path fill-rule="evenodd" clip-rule="evenodd" d="M198.071 278.332C204.537 276.546 208.512 271.878 209.673 265.614C209.991 261.643 208.865 257.129 204.514 256.668C200.771 258.396 197.504 260.226 194.657 263.305C196.018 268.116 196.205 273.681 198.071 278.332Z" fill="#F6D32D" stroke="black" stroke-width="3"/>
<path fill-rule="evenodd" clip-rule="evenodd" d="M397.206 251.27C420.345 239.589 438.235 298.795 448.327 325.962C445.529 329.525 445.434 339.019 451.138 348.287C455.025 354.602 461.039 359.916 467.971 365.765C461.583 345.732 465.93 358.878 461.891 345.656C465.459 354.215 468.072 360.308 478 365.082C471.956 344.035 465.184 332.713 452.798 323.377C437.714 286.271 428.276 240.033 391.086 238.672" fill="white"/>
<path d="M397.206 251.27C420.345 239.589 438.235 298.795 448.327 325.962C445.529 329.525 445.434 339.019 451.138 348.287C455.025 354.602 461.039 359.916 467.971 365.765C461.583 345.732 465.93 358.878 461.891 345.656C465.459 354.215 468.072 360.308 478 365.082C471.956 344.035 465.184 332.713 452.798 323.377C437.714 286.271 428.276 240.033 391.086 238.672" stroke="black" stroke-width="3"/>
<path fill-rule="evenodd" clip-rule="evenodd" d="M284.328 252.557C286.669 250.902 298.79 251.982 288.652 245.154C278.65 238.417 255.043 221.842 253.352 219.617C245.368 214.436 235.097 183.52 228.065 177.011C211.193 161.393 185.656 132.92 186.313 127.508C188.562 108.985 205.334 72.6618 221.817 67.2972C229.52 64.7899 244.816 68.0525 247.242 68.7096C261.989 72.7041 283.685 90.1583 294.218 102.84C313.165 115.79 313.662 124.746 320.767 139.91C326.542 155.083 336.658 172.041 342.774 182.83C354.17 195.154 372.489 211.57 382.309 225.127C382.96 226.027 386.246 231.695 390.314 237.331C391.927 239.566 392.865 241.846 394.268 244.06C395.414 245.868 379.77 275.693 366.292 280.983C364.694 281.61 332.519 266.656 317.665 263.838C301.803 260.828 294.112 257.982 284.328 252.557Z" fill="white" stroke="black" stroke-width="3"/>
<path fill-rule="evenodd" clip-rule="evenodd" d="M299.094 184.407C289.042 193.875 275.238 197.576 265.328 200.938C253.327 204.168 269.334 200.372 244.92 207.714C234.703 210.376 225.8 200.278 216.339 196.757C215.594 197.181 181.002 188.934 174.19 196.168C167.057 197.891 173.28 207.638 168.696 210.143C165.803 211.706 162.136 206.717 159.695 214.238C156.66 214.107 143.696 207.366 146.805 207.048C146.198 210.502 149.173 184.244 165.075 182.559C180.325 173.449 221.668 175.612 225.162 177.071C228.716 174.892 233.321 180.101 236.962 177.322C247.214 165.578 250.225 166.694 254.919 159.397C255.501 158.552 266.135 152.569 266.834 151.816" fill="white"/>
<path d="M299.094 184.407C289.042 193.875 275.238 197.576 265.328 200.938C253.327 204.168 269.334 200.372 244.92 207.714C234.703 210.376 225.8 200.278 216.339 196.757C215.594 197.181 181.002 188.934 174.19 196.168C167.057 197.891 173.28 207.638 168.696 210.143C165.803 211.706 162.136 206.717 159.695 214.238C156.66 214.107 143.696 207.366 146.805 207.048C146.198 210.502 149.173 184.244 165.075 182.559C180.325 173.449 221.668 175.612 225.162 177.071C228.716 174.892 233.321 180.101 236.962 177.322C247.214 165.578 250.225 166.694 254.919 159.397C255.501 158.552 266.135 152.569 266.834 151.816" stroke="black" stroke-width="3"/>
<path fill-rule="evenodd" clip-rule="evenodd" d="M137.202 219.318C142.885 222.445 149.066 222.269 154.56 219.336C157.764 217.207 160.408 213.826 157.836 210.744C154.025 209.342 150.455 208.308 146.227 208.279C143.517 211.986 139.452 215.379 137.202 219.318Z" fill="#F6D32D" stroke="black" stroke-width="3"/>
<path fill-rule="evenodd" clip-rule="evenodd" d="M141.083 222.562C147.161 225.385 153.23 224.406 158.205 220.394C161.041 217.58 163.137 213.421 160.133 210.257C156.163 209.15 152.485 208.429 148.311 208.93C146.201 213.468 142.706 217.82 141.083 222.562Z" fill="#F6D32D" stroke="black" stroke-width="3"/>
<path fill-rule="evenodd" clip-rule="evenodd" d="M215.928 118.888C218.007 125.228 215.743 130.889 209.386 137.964L215.928 118.888Z" fill="white"/>
<path d="M215.928 118.888C218.007 125.228 215.743 130.889 209.386 137.964" stroke="black" stroke-width="3"/>
<path fill-rule="evenodd" clip-rule="evenodd" d="M211.564 122.653L180.467 137.094C187.354 146.789 186.579 154.256 194.639 157.907C203.377 161.865 211.156 150.376 224.495 164.44" fill="white"/>
<path d="M211.564 122.653L180.467 137.094C187.354 146.789 186.579 154.256 194.639 157.907C203.377 161.865 211.156 150.376 224.495 164.44" stroke="black" stroke-width="3"/>
<path fill-rule="evenodd" clip-rule="evenodd" d="M128.74 79.2048C133.558 85.6012 139.527 85.1321 144.973 83.5827C150.622 81.9759 156.343 80.243 161.68 77.7194C173.241 72.2526 194.816 71.28 195.893 87.6068C196.105 90.8242 191.926 93.1565 189.077 94.4109C185.953 95.7865 185.408 91.129 184.188 89.1785C176.517 76.9144 164.522 85.4121 153.143 88.8064C143.789 91.5962 130.143 91.5311 128.74 79.2048Z" fill="#F6D32D" stroke="black" stroke-width="3"/>
<path fill-rule="evenodd" clip-rule="evenodd" d="M211.665 143.715C204.882 151.208 205.365 140.346 200.029 143.12C195.93 144.758 191.608 145.924 187.36 147.154C182.597 148.534 182.408 152.272 178.124 154.074C173.937 155.835 170.397 158.43 166.652 158.8C162.451 159.215 158.096 157.149 154.335 154.228C150.937 151.588 154.104 145.532 154.809 141.127L157.391 124.979C158.489 118.12 155.937 113.058 155.241 105.909C154.215 95.3726 162.011 91.7541 163.413 88.0129C165.084 83.5527 167.181 80.5431 170.164 76.6915C176.113 69.0128 185.332 66.1248 194.505 68.5175C211.002 62.5674 228.536 58.7016 247.443 68.3176C248.242 68.7238 249.883 69.3925 250.687 69.8477" fill="white"/>
<path d="M211.665 143.715C204.882 151.208 205.365 140.346 200.029 143.12C195.93 144.758 191.608 145.924 187.36 147.154C182.597 148.534 182.408 152.272 178.124 154.074C173.937 155.835 170.397 158.43 166.652 158.8C162.451 159.215 158.096 157.149 154.335 154.228C150.937 151.588 154.104 145.532 154.809 141.127L157.391 124.979C158.489 118.12 155.937 113.058 155.241 105.909C154.215 95.3726 162.011 91.7541 163.413 88.0129C165.084 83.5527 167.181 80.5431 170.164 76.6915C176.113 69.0127 185.332 66.1248 194.505 68.5175C211.002 62.5674 228.536 58.7016 247.443 68.3176C248.242 68.7238 249.883 69.3925 250.687 69.8477" stroke="black" stroke-width="3"/>
<path fill-rule="evenodd" clip-rule="evenodd" d="M135.743 60.0277C139.471 67.1107 145.438 67.5974 151.062 66.9342C156.895 66.2464 162.82 65.4456 168.492 63.8029C180.781 60.2443 202.232 62.7174 200.674 79.0114C200.367 82.2222 195.868 83.8603 192.855 84.6456C189.551 85.5069 189.761 80.8209 188.869 78.7006C183.266 65.3692 170.064 71.8518 158.287 73.3925C148.607 74.659 135.149 72.423 135.743 60.0277Z" fill="#F6D32D" stroke="black" stroke-width="3"/>
<path fill-rule="evenodd" clip-rule="evenodd" d="M199.914 96.1328C202.58 101.281 203.654 108.444 202.45 118.489L199.914 96.1328Z" fill="white"/>
<path d="M199.914 96.1328C202.58 101.281 203.654 108.444 202.45 118.489" stroke="black" stroke-width="3"/>
<path fill-rule="evenodd" clip-rule="evenodd" d="M165.975 113.638C167.36 110.957 167.07 111.038 168.647 110.215C174.974 106.909 182.197 114.852 185.105 104.24C183.288 102.298 176.45 100.654 173.359 105.051C172.621 106.101 173.219 108.966 170.113 109.454" fill="white"/>
<path d="M165.975 113.638C167.36 110.957 167.07 111.038 168.647 110.215C174.974 106.909 182.197 114.852 185.105 104.24C183.288 102.298 176.45 100.654 173.359 105.051C172.621 106.101 173.219 108.966 170.113 109.454" stroke="black" stroke-width="2"/>
<path fill-rule="evenodd" clip-rule="evenodd" d="M174.397 104.012C179.965 101.198 183.297 100.868 186.093 96.712L174.397 104.012Z" fill="white"/>
<path d="M174.397 104.012C179.965 101.198 183.297 100.868 186.093 96.712" stroke="black" stroke-width="2"/>
<path d="M178.956 102.435C177.384 102.418 176.09 103.965 176.067 105.89C176.044 107.815 177.299 109.389 178.872 109.406C180.444 109.423 181.738 107.876 181.761 105.951C181.785 104.026 180.529 102.452 178.956 102.435Z" fill="#3584E4" stroke="black" stroke-width="2"/>
<path fill-rule="evenodd" clip-rule="evenodd" d="M188.654 88.2617C188.561 85.9836 190.172 84.6383 193.021 81.9817C196.459 78.7771 203.329 78.9032 208.62 75.4419C213.725 72.1021 217.865 66.5408 220.773 62.2071C221.929 67.4808 220.53 93.1465 200.288 90.5577C197.175 90.1596 195.151 95.8111 191.679 94.8932" fill="white"/>
<path d="M188.654 88.2617C188.561 85.9836 190.172 84.6383 193.021 81.9817C196.459 78.7771 203.329 78.9032 208.62 75.4419C213.725 72.1021 217.865 66.5408 220.773 62.2071C221.929 67.4808 220.53 93.1465 200.288 90.5577C197.175 90.1596 195.151 95.8111 191.679 94.8932" stroke="black" stroke-width="3"/>
<path fill-rule="evenodd" clip-rule="evenodd" d="M165.235 141.167C164.479 146.218 156.085 151.839 168.438 150.206C169.092 150.12 170.649 145.787 169.915 145.163" fill="white"/>
<path d="M165.235 141.167C164.479 146.218 156.085 151.839 168.438 150.206C169.092 150.12 170.649 145.787 169.915 145.163" stroke="black" stroke-width="3"/>
<path fill-rule="evenodd" clip-rule="evenodd" d="M174.575 155.752C176.324 154.615 178.234 154.358 179.705 153.048C184.299 148.957 187.267 142.691 189.413 133.575" fill="white"/>
<path d="M174.575 155.752C176.324 154.615 178.234 154.358 179.705 153.048C184.299 148.957 187.267 142.691 189.413 133.575" stroke="black" stroke-width="3"/>
<path fill-rule="evenodd" clip-rule="evenodd" d="M194.685 93.3938C192.898 83.2226 211.646 83.1741 220.627 64.6769L194.685 93.3938Z" fill="white"/>
<path d="M194.685 93.3938C192.898 83.2226 211.646 83.1741 220.627 64.6769" stroke="black" stroke-width="3"/>
<path fill-rule="evenodd" clip-rule="evenodd" d="M409.914 405.893C416.047 403.761 420.032 399.058 421.491 393.029C422.027 389.235 421.25 385.022 417.223 384.877C413.632 386.77 410.477 388.729 407.639 391.846C408.617 396.325 408.456 401.6 409.914 405.893Z" fill="#F6D32D" stroke="black" stroke-width="3"/>
<path fill-rule="evenodd" clip-rule="evenodd" d="M414.932 405.171C421.1 402.543 424.408 397.39 424.71 391.029C424.487 387.051 422.761 382.727 418.386 382.847C414.91 385.055 411.919 387.303 409.515 390.732C411.515 395.32 412.454 400.81 414.932 405.171Z" fill="#F6D32D" stroke="black" stroke-width="3"/>
<path fill-rule="evenodd" clip-rule="evenodd" d="M338.968 254.209C339.851 261.106 336.248 271.457 336.342 275.979C336.627 289.642 340.019 302.436 347.283 308.702C349.566 310.395 355.265 316.06 358.673 317.463C364.549 323.757 381.672 325.646 388.289 329.957C400.981 344.752 405.749 359.591 405.656 372.229C405.427 376.739 409.111 387.898 409.365 391.291C410.795 396.799 415.698 385.03 419.719 384.094C416.771 376.443 422.969 374.15 423.348 373.422C422.644 370.613 420.173 368.609 418.077 366.03C416.083 360.908 414.752 356.131 413.573 351.781C411.272 343.584 412.321 340.5 410.223 332.257C407.363 327.082 411.8 321.814 410.576 316.54C409.124 310.53 400.38 308.963 400.009 302.749C399.546 294.98 405.466 279.952 400.96 264.389C400.571 261.091 397.628 250.502 393.545 242.378C393.091 241.475 391.349 239.419 391.209 238.76" fill="white"/>
<path d="M338.968 254.209C339.851 261.106 336.248 271.457 336.342 275.979C336.627 289.642 340.019 302.436 347.283 308.702C349.566 310.395 355.265 316.06 358.673 317.463C364.549 323.757 381.672 325.646 388.289 329.957C400.981 344.752 405.749 359.591 405.656 372.229C405.427 376.739 409.111 387.898 409.365 391.291C410.795 396.799 415.698 385.03 419.719 384.094C416.771 376.443 422.969 374.15 423.348 373.422C422.644 370.613 420.173 368.609 418.077 366.03C416.083 360.908 414.752 356.131 413.573 351.781C411.272 343.584 412.321 340.5 410.223 332.257C407.363 327.082 411.8 321.814 410.576 316.54C409.124 310.53 400.38 308.963 400.009 302.749C399.546 294.98 405.466 279.952 400.96 264.389C400.571 261.091 397.628 250.502 393.545 242.378C393.091 241.475 391.349 239.419 391.209 238.76" stroke="black" stroke-width="3"/>
<path fill-rule="evenodd" clip-rule="evenodd" d="M300 658.213C300 658.213 1.5 545.893 1.5 260.441C1.5 -25.0105 1.5 1.88939 1.5 1.88939H598.5V260.441C598.5 545.893 300 658.213 300 658.213Z" stroke="black" stroke-width="3"/>
</svg>
