<svg width="601" height="662" viewBox="0 0 601 662" fill="none" xmlns="http://www.w3.org/2000/svg">
<path fill-rule="evenodd" clip-rule="evenodd" d="M498.639 518.736C411.822 617.153 300.5 659.074 300.5 659.074C301.074 654.479 4.4447 547.921 3.1487 262.473C2 9.47142 2 4.77173 2 4.77173L498.639 518.736Z" fill="#26A269" stroke="black" stroke-width="3"/>
<path fill-rule="evenodd" clip-rule="evenodd" d="M599.364 1.53076V260.083C599.364 371.41 553.961 456.401 498.571 518.667L2.36414 5.146V1.53076H599.364Z" fill="#3584E4" stroke="black" stroke-width="3"/>
<path fill-rule="evenodd" clip-rule="evenodd" d="M279.339 451.162C274.638 457.429 270.858 463.564 274.406 468.652C272.562 494.812 283.1 515.664 288.757 538.609C296.018 515.756 309.373 494.121 305.798 469.1C308.237 463.121 303.653 457.142 300.416 451.162" fill="#F6D32D"/>
<path d="M279.339 451.162C274.638 457.429 270.858 463.564 274.406 468.652C272.562 494.812 283.1 515.664 288.757 538.609C296.018 515.756 309.373 494.121 305.798 469.1C308.237 463.121 303.653 457.142 300.416 451.162" stroke="black" stroke-width="3"/>
<path fill-rule="evenodd" clip-rule="evenodd" d="M245.25 420.942L233.227 429.961C225.507 441.588 220.871 447.368 215.695 454.171C202.936 453.857 196.309 446.279 188.645 439.93L173.117 440.405C158.175 434.027 154.309 425.551 152.579 416.669C144.393 406.438 145.648 393.225 145.065 380.592C143.514 384.267 170.289 412.685 166.605 408.599C165.529 407.407 154.675 377.881 154.582 371.098C161.381 376.816 167.301 385.189 170.612 393.884C172.834 384.045 168.386 372.627 165.603 361.604C173.968 372.095 184.352 381.948 185.139 394.833C187.682 400.679 191.205 406.292 188.645 413.347C191.818 416.119 194.99 419.532 198.163 416.195C211.351 410.181 212.132 400.248 218.2 391.985M334.244 420.942L346.266 429.961C353.987 441.588 358.623 447.368 363.799 454.171C376.557 453.857 383.184 446.279 390.849 439.93L406.377 440.405C421.319 434.027 425.185 425.551 426.915 416.669C435.101 406.438 433.846 393.225 434.429 380.592C435.98 384.267 409.205 412.685 412.889 408.599C413.964 407.407 424.818 377.881 424.911 371.098C418.112 376.816 412.193 385.189 408.882 393.884C406.66 384.045 411.107 372.627 413.891 361.604C405.526 372.095 395.142 381.948 394.355 394.833C391.812 400.679 388.289 406.292 390.849 413.347C387.676 416.119 384.504 419.532 381.331 416.195C368.142 410.181 367.362 400.248 361.294 391.985" fill="#F6D32D"/>
<path d="M245.25 420.942L233.227 429.961C225.507 441.588 220.871 447.368 215.695 454.171C202.936 453.857 196.309 446.279 188.645 439.93L173.117 440.405C158.175 434.027 154.309 425.551 152.579 416.669C144.393 406.438 145.648 393.225 145.065 380.592C143.514 384.267 170.289 412.685 166.605 408.599C165.529 407.407 154.675 377.881 154.582 371.098C161.381 376.816 167.301 385.189 170.612 393.884C172.834 384.045 168.386 372.627 165.603 361.604C173.968 372.095 184.352 381.948 185.139 394.833C187.682 400.679 191.205 406.292 188.645 413.347C191.818 416.119 194.99 419.532 198.163 416.195C211.351 410.181 212.132 400.248 218.2 391.985M334.244 420.942L346.266 429.961C353.987 441.588 358.623 447.368 363.799 454.171C376.557 453.857 383.184 446.279 390.849 439.93L406.377 440.405C421.319 434.027 425.185 425.551 426.915 416.669C435.101 406.438 433.846 393.225 434.429 380.592C435.98 384.267 409.205 412.685 412.889 408.599C413.964 407.407 424.818 377.881 424.911 371.098C418.112 376.816 412.193 385.189 408.882 393.884C406.66 384.045 411.107 372.627 413.891 361.604C405.526 372.095 395.142 381.948 394.355 394.833C391.812 400.679 388.289 406.292 390.849 413.347C387.676 416.119 384.504 419.532 381.331 416.195C368.142 410.181 367.362 400.248 361.294 391.985" stroke="black" stroke-width="3"/>
<path fill-rule="evenodd" clip-rule="evenodd" d="M275.781 223.389C283.889 220.877 275.4 198.275 271.527 195.565C260.161 187.61 256.798 157.541 265.573 138.12C274.463 118.446 301.913 118.152 312.359 139.018C320.261 154.801 320.041 171.855 304.943 195.565C299.246 204.511 296.979 217.66 301.3 224.736" fill="#F6D32D"/>
<path d="M275.781 223.389C283.889 220.877 275.4 198.275 271.527 195.565C260.161 187.61 256.798 157.541 265.573 138.12C274.463 118.446 301.913 118.152 312.359 139.018C320.261 154.801 320.041 171.855 304.943 195.565C299.246 204.511 296.979 217.66 301.3 224.736" stroke="black" stroke-width="3"/>
<path d="M269.852 148.873C269.044 150.703 268.123 152.462 267.142 154.049C266.162 155.637 265.14 157.022 264.137 158.125C263.134 159.229 262.168 160.029 261.295 160.48C260.422 160.931 259.658 161.025 259.049 160.755C258.439 160.485 257.995 159.858 257.741 158.908C257.488 157.959 257.43 156.706 257.572 155.221C257.713 153.736 258.051 152.049 258.566 150.255C259.081 148.462 259.763 146.597 260.573 144.768C261.381 142.939 262.302 141.18 263.283 139.593C264.263 138.005 265.285 136.62 266.288 135.517C267.291 134.413 268.257 133.613 269.13 133.162C270.003 132.71 270.767 132.617 271.376 132.887C271.986 133.156 272.43 133.784 272.684 134.734C272.937 135.683 272.995 136.936 272.853 138.421C272.712 139.906 272.374 141.593 271.859 143.387C271.344 145.18 270.662 147.045 269.852 148.873Z" fill="#F6D32D" stroke="black" stroke-width="3"/>
<path d="M308.264 148.873C309.073 150.703 309.994 152.462 310.974 154.049C311.955 155.637 312.976 157.022 313.98 158.125C314.983 159.229 315.949 160.029 316.822 160.48C317.695 160.931 318.458 161.025 319.068 160.755C319.678 160.485 320.122 159.858 320.375 158.908C320.629 157.959 320.686 156.706 320.545 155.221C320.403 153.736 320.066 152.049 319.551 150.255C319.036 148.462 318.354 146.597 317.544 144.768C316.736 142.939 315.815 141.18 314.834 139.593C313.853 138.005 312.832 136.62 311.829 135.517C310.825 134.413 309.859 133.613 308.986 133.162C308.113 132.71 307.35 132.617 306.74 132.887C306.131 133.156 305.686 133.784 305.433 134.734C305.179 135.683 305.122 136.936 305.263 138.421C305.405 139.906 305.743 141.593 306.258 143.387C306.773 145.18 307.454 147.045 308.264 148.873Z" fill="#F6D32D" stroke="black" stroke-width="3"/>
<path fill-rule="evenodd" clip-rule="evenodd" d="M190.326 284.228C182.288 275.143 174.697 262.081 173.692 252.177L163.378 241.737C157.696 226.76 160.462 217.957 164.858 210.345C165.926 197.276 174.937 183.376 182.402 173.853C179.12 175.429 178.758 219.765 178.917 214.258C178.963 212.651 190.285 178.569 194.435 173.608C195.273 182.456 193.896 197.843 190.636 206.419C198.175 200.86 202.392 184.297 207.438 174.407C206.324 187.788 206.909 207.343 199.42 217.19C197.432 223.175 196.221 229.673 190.192 232.988C190.518 237.192 190.447 241.858 194.565 241.653C206.807 246.469 213.476 239.841 222.519 238.09M389.168 284.228C397.205 275.143 404.797 262.081 405.801 252.177L416.115 241.737C421.798 226.76 419.032 217.957 414.636 210.345C413.567 197.276 404.557 183.376 397.092 173.853C400.374 175.429 400.736 219.765 400.577 214.258C400.531 212.651 389.208 178.569 385.058 173.608C384.22 182.456 385.598 197.843 388.858 206.419C381.318 200.86 377.101 184.297 372.055 174.407C373.169 187.788 372.585 207.343 380.074 217.19C382.062 223.175 383.273 229.673 389.302 232.988C388.976 237.192 389.047 241.858 384.929 241.653C372.687 246.469 366.018 239.841 356.975 238.09" fill="#F6D32D"/>
<path d="M190.326 284.228C182.288 275.143 174.697 262.081 173.692 252.177L163.378 241.737C157.696 226.76 160.462 217.957 164.858 210.345C165.926 197.276 174.937 183.376 182.402 173.853C179.12 175.429 178.758 219.765 178.917 214.258C178.963 212.651 190.285 178.569 194.435 173.608C195.273 182.456 193.896 197.843 190.636 206.419C198.175 200.86 202.392 184.297 207.438 174.407C206.324 187.788 206.909 207.343 199.42 217.19C197.432 223.175 196.221 229.673 190.192 232.988C190.518 237.192 190.447 241.858 194.565 241.653C206.807 246.469 213.476 239.841 222.519 238.089M389.168 284.228C397.205 275.143 404.797 262.081 405.801 252.177L416.115 241.737C421.798 226.76 419.032 217.957 414.636 210.345C413.567 197.276 404.557 183.376 397.092 173.853C400.374 175.429 400.736 219.765 400.577 214.258C400.531 212.651 389.208 178.569 385.058 173.608C384.22 182.456 385.598 197.843 388.858 206.419C381.318 200.86 377.101 184.297 372.055 174.407C373.169 187.788 372.585 207.343 380.074 217.19C382.062 223.175 383.273 229.673 389.302 232.988C388.976 237.192 389.047 241.858 384.929 241.653C372.687 246.469 366.018 239.841 356.975 238.089" stroke="black" stroke-width="3"/>
<path fill-rule="evenodd" clip-rule="evenodd" d="M291.607 218.31C282.922 192.852 375.362 219.502 356.524 234.563C372.624 219.47 409.595 287.984 390.605 286.583C403.44 288.301 406.7 326.95 388.812 318.871C406.379 316.901 397.903 365.48 383.43 365.509C399.665 371.969 377.93 409.483 360.111 406.766C363.926 414.993 352.126 438.631 338.586 435.467C349.885 441.968 317.237 463.735 309.511 457.67C310.886 463.124 296.061 465.016 291.607 459.234C287.152 464.119 270.204 466.74 273.702 457.67C268.219 465.081 231.294 440.622 243.041 435.467C229.5 438.631 216.75 415.627 220.564 407.4C202.746 410.117 185.495 375.371 197.245 364.875C182.772 364.846 175.904 320.488 191.23 318.871C172.855 329.633 175.824 286.583 188.802 286.583C167.57 288.432 211.223 216.933 227.323 232.026C208.485 218.311 298.946 191.507 291.607 218.31Z" fill="#F6D32D" stroke="black" stroke-width="3"/>
<path d="M308.092 457.223C309.43 442.204 301.87 426.918 291.948 413.493C321.203 418.23 330.675 396.263 332.757 384.792C345.368 381.559 346.137 370.967 349.348 358.334C362.513 349.836 356.661 343.106 353.833 332.324C363.653 321.561 356.72 306.314 350.245 295.552C351.514 287.479 354.87 279.407 337.689 271.335C330.636 251.283 308.614 240.275 291.606 242.635C274.599 240.275 252.577 251.283 245.523 271.335C228.343 279.407 231.698 287.479 232.967 295.552C226.492 306.314 219.559 317.077 229.379 327.84C226.551 338.622 220.699 349.836 233.864 358.334C237.076 370.967 237.396 381.559 250.008 384.792C252.09 396.263 260.664 418.23 291.713 414.39C281.791 427.815 273.783 442.204 275.121 457.223M224.709 230.651C228.909 244.608 235.669 259.758 244.627 271.335M186.994 286.112C200.306 293.822 219.338 293.136 232.65 295.443M187.193 319.857C199.031 327.519 217.333 326.204 229.171 328.419M195.81 363.53C209.11 355.81 222.748 363.817 233.918 358.597M220.551 406.834C223.366 397.13 239.934 391.775 249.002 385.186M241.913 434.855C246.323 419.97 253.669 416.543 261.668 407.215M358.356 232.631C354.155 246.587 347.543 259.758 338.586 271.335M392.855 286.057C379.543 293.768 363.874 293.136 350.562 295.443M393.386 320.062C381.548 327.724 366.427 330.666 354.589 332.881M384.801 366.034C371.501 358.315 360.465 363.817 349.294 358.597M358.865 405.357C356.05 395.653 341.375 391.141 332.308 384.552M338.98 436.857C334.571 421.972 329.938 415.242 321.939 405.914M333.205 384.344C326.927 384.344 314.373 377.768 314.373 377.768C314.373 377.768 306.135 367.515 293.131 367.643C281.879 367.753 269.678 372.359 266.6 378.514C266.6 378.514 256.286 384.344 250.008 384.344M354.73 333.221L323.339 337.705C326.755 332.013 308.182 331.314 291.606 325.597C274.899 319.835 259.197 332.295 259.874 337.705L228.483 328.288M337.689 272.232C333.745 282.22 338.083 286.405 321.686 299.223C321.686 296.431 304.852 290.989 291.606 292.611C276.23 294.495 262.712 294.013 262.161 297.32C245.764 284.502 249.468 282.22 245.523 272.232M291.249 214.007L291.284 243.759M291.606 242.706C317.016 254.252 317.435 270.984 321.462 298.998C333.744 309.042 326.691 326.197 322.442 338.602C326.864 353.908 319.141 364.199 314.819 377.319C311.325 392.361 301.691 405.149 291.606 414.39C281.522 405.149 271.888 393.108 268.394 378.066C264.072 364.945 256.349 353.908 260.771 338.602C256.522 326.197 250.737 307.774 263.019 297.73C268.322 269.826 261.573 256.757 291.606 242.706Z" stroke="black" stroke-width="3"/>
<path fill-rule="evenodd" clip-rule="evenodd" d="M300.5 657.855C300.5 657.855 2 545.535 2 260.083C2 -25.3684 2 1.53148 2 1.53148H599V260.083C599 545.535 300.5 657.855 300.5 657.855Z" stroke="black" stroke-width="3"/>
</svg>
